<svg xmlns="http://www.w3.org/2000/svg" width="88" height="24" viewBox="0 0 88 24"><g fill="none" fill-rule="evenodd"><path fill="#299400" d="M12 24c6.6 0 12-5.376 12-12S18.6 0 12 0C5.376 0 0 5.376 0 12s5.376 12 12 12z"></path><path fill="#FFF" d="M12 3.75c4.125 0 6.925 3.175 6.925 6.6 0 1.375-.3 2.575-1 4.075-4.1 0-4.85 2.725-5.025 4.55l-.125 1.275h-1.55l-.125-1.275c-.175-1.825-.925-4.55-5.025-4.55-.7-1.5-1-2.7-1-4.075 0-3.425 2.8-6.6 6.925-6.6z"></path><path fill="#262626" d="M34.8 3.75c-3.9 0-6.825 2.375-6.8 6.5h3.625C31.575 8.6 32.625 7 34.8 7c1.65 0 2.7 1.1 2.7 2.5 0 1.45-1.15 2.25-3 3.15-2.425 1.175-3.875 1.725-6.5 2.6V20h13v-3.25h-8.1c1.253-.522 2.473-1.096 3.575-1.625 2.925-1.4 4.65-2.975 4.65-5.8 0-3.4-2.55-5.575-6.325-5.575zm11.95 3.5h7.5V4h-11v16h3.5V7.25zM59.5 4H56v16h3.475L66 9.775V20h3.5V4H66l-6.5 10.225V4zm27.575 10H83.45c-.55 1.775-2.225 3-4.2 3-2.875 0-4.75-2.475-4.75-5s1.825-5 4.85-5c2 0 3.55 1.225 4.1 3h3.625c-.525-3.575-3.35-6.25-7.825-6.25C74.3 3.75 71 7.225 71 12s3.3 8.25 8.25 8.25c4.475 0 7.3-2.625 7.825-6.25z"></path></g></svg>