<?xml version="1.0" encoding="utf-8"?>
<!-- Generator: Adobe Illustrator 22.0.0, SVG Export Plug-In . SVG Version: 6.00 Build 0)  -->
<svg version="1.1" id="Capa_1" xmlns="http://www.w3.org/2000/svg" xmlns:xlink="http://www.w3.org/1999/xlink" x="0px" y="0px"
	 viewBox="0 0 512 512" style="enable-background:new 0 0 512 512;" xml:space="preserve">
<style type="text/css">
	.st0{fill:#ED0000;}
</style>
<g>
	<g>
		<path class="st0" d="M437.7,195.8h-46.1L330.7,135c-14-14-32.7-21.8-52.5-21.8H89.5c-22.5,0-43.1,13.2-52.5,33.6L2.3,222.1
			c-1.5,3.2-2.3,6.8-2.3,10.4V328c0,13.7,11.1,24.8,24.8,24.8h17c4.1,37.1,35.6,66.1,73.8,66.1s69.7-29,73.8-66.1h133.1
			c4.1,37.1,35.6,66.1,73.8,66.1s69.7-29,73.8-66.1h17c13.7,0,24.8-11.1,24.8-24.8v-57.8C512,229.2,478.7,195.8,437.7,195.8z
			 M115.6,402.3c-31.9,0-57.8-25.9-57.8-57.8s25.9-57.8,57.8-57.8s57.8,25.9,57.8,57.8S147.5,402.3,115.6,402.3z M396.4,402.3
			c-31.9,0-57.8-25.9-57.8-57.8s25.9-57.8,57.8-57.8s57.8,25.9,57.8,57.8S428.3,402.3,396.4,402.3z M495.5,327.9
			c0,4.6-3.7,8.3-8.3,8.3h-17c-4.1-37.1-35.6-66.1-73.8-66.1s-69.7,29-73.8,66.1H223v-99.1h-16.5v99.1h-17
			c-4.1-37.1-35.6-66.1-73.8-66.1s-69.7,29-73.8,66.1h-17c-4.6,0-8.3-3.7-8.3-8.3v-33H33v-16.5H16.5v-16.5H33v-16.5H16.5v-12.9
			c0-1.2,0.3-2.4,0.8-3.5L52,153.7c6.7-14.6,21.4-24,37.5-24h188.7c15.4,0,30,6,40.9,16.9l65.7,65.7h53c31.9,0,57.8,25.9,57.8,57.8
			L495.5,327.9L495.5,327.9z"/>
	</g>
</g>
<g>
	<g>
		<path class="st0" d="M437.7,228.8v16.5c13.7,0,24.8,11.1,24.8,24.8H479C479,247.4,460.4,228.8,437.7,228.8z"/>
	</g>
</g>
<g>
	<g>
		<rect x="256" y="237.1" class="st0" width="33" height="16.5"/>
	</g>
</g>
<g>
	<g>
		<path class="st0" d="M396.4,311.4c-18.2,0-33,14.8-33,33s14.8,33,33,33s33-14.8,33-33S414.6,311.4,396.4,311.4z M396.4,361
			c-9.1,0-16.5-7.4-16.5-16.5s7.4-16.5,16.5-16.5s16.5,7.4,16.5,16.5S405.5,361,396.4,361z"/>
	</g>
</g>
<g>
	<g>
		<path class="st0" d="M115.6,311.4c-18.2,0-33,14.8-33,33s14.8,33,33,33s33-14.8,33-33S133.8,311.4,115.6,311.4z M115.6,361
			c-9.1,0-16.5-7.4-16.5-16.5s7.4-16.5,16.5-16.5s16.5,7.4,16.5,16.5S124.7,361,115.6,361z"/>
	</g>
</g>
<g>
	<g>
		<path class="st0" d="M173.4,220.6h196.2l-62.2-62.2c-7.7-7.7-18.3-12.1-29.2-12.1H89.5c-9.6,0-18.5,5.7-22.5,14.4l-27.7,59.9
			h117.6v-16.5H65.2L82,167.6c1.3-2.9,4.3-4.8,7.5-4.8h188.7c6.5,0,12.9,2.6,17.5,7.3l34,34H173.4V220.6z"/>
	</g>
</g>
</svg>
