<?xml version="1.0" encoding="utf-8"?>
<!-- Generator: Adobe Illustrator 19.0.0, SVG Export Plug-In . SVG Version: 6.00 Build 0)  -->
<svg version="1.1" id="Слой_1" xmlns="http://www.w3.org/2000/svg" xmlns:xlink="http://www.w3.org/1999/xlink" x="0px" y="0px"
	 viewBox="0 0 300 100" style="enable-background:new 0 0 300 100;" xml:space="preserve">
<style type="text/css">
	.st0{fill:#FFB000;}
	.st1{fill:#FF6E0F;}
	.st2{fill:#FF0E2F;}
	.st3{fill:#595550;}
</style>
<path id="XMLID_1_" class="st0" d="M120.6,3.6c-24,0-44.3,14.7-54.9,35.9c-0.5,1.1-0.9,1.9-0.8,1.8c0,0,0,0.1,0,0.1
	c2.3-3.4,12.4-18.9,37.9-18.9c0.3,0,2.8,0,4.6,0c0,0,0.3-0.1,0.3-0.1c0.7,0,1.3,0,1.5,0c16.8,0,22.2-18.5,22.2-18.5
	S122.9,3.6,120.6,3.6z"/>
<path id="XMLID_2_" class="st1" d="M107.7,22.2c-3.1,0-4.6,0-4.8,0c-26,0-35.7,15.6-38,19c-0.1,0.2-0.3,0.6-0.6,1.1l-2.6,5.2
	c-0.5,1-1,2.4-0.9,2.2c0.7-1,2.5-3,3.7-4.1c3-2.9,8.8-6.3,17.8-6.3c0.5,0,4.1,0,4.6,0c0.2,0,0.5,0,0.7,0c0,0,0.1-0.2,0.1-0.2
	C101.2,38.7,107.2,23.7,107.7,22.2z"/>
<path id="XMLID_3_" class="st2" d="M87.3,39.1c-0.5,0-4.5,0-5,0c-13.2,0-19.1,7-21.3,10.2c-3.2,6-6.5,12.2-6.5,12.2L41.9,37.6
	c-2.1-3.7-6.2-6.4-11.2-7.3c-1.7-0.3-3.6-0.4-5.8-0.4c-1.6,0-8,0.4-8,0.4s22.5,43.5,23.9,45.9c1.5,2.6,2.8,4.5,3.2,5
	c2.1,2.9,5,4.7,8.2,5.3c0.7,0.1,1.5,0.2,2.2,0.2c2.8,0,5.5-1,7.8-2.8l1-0.9c0.9-0.9,2.6-2.7,3.9-5.4c0-0.1,13-24.3,20.5-38.4
	C87.6,39.1,87.4,39.1,87.3,39.1z"/>
<path id="XMLID_4_" class="st3" d="M27.5,62.6c-1.9,7.5-5.8,22.3-5.8,22.4c-2,8.2-12.8,9.3-17,7.8c1.6-5.4,9.5-37.2,12.3-49.9
	l-2.1-4l-14,56.2c0.2,0,0.4,0.1,1.4,0.4c2.2,0.6,7.8,1.9,14.2-0.6c4.2-1.9,7.2-4.4,8.2-8.6l4.9-19.6L27.5,62.6z"/>
<path id="XMLID_5_" class="st3" d="M81.7,62.6c1.9,7.5,5.8,22.3,5.8,22.4c2,8.2,12.8,9.3,17,7.8c-1.6-5.4-9-35.3-11.9-48l2.1-4
	l13.6,54.3c-0.2,0-0.4,0.1-1.4,0.4c-2.2,0.6-7.8,1.9-14.2-0.6c-4.2-1.9-7.2-4.4-8.2-8.6l-4.9-19.6L81.7,62.6z"/>
<path id="XMLID_6_" class="st3" d="M118.1,76.1c0.5,0,0.9-0.1,1.1-0.3c0.2-0.2,0.3-0.5,0.3-0.8c0-0.3-0.1-0.6-0.4-0.8
	c-0.2-0.2-0.6-0.3-1.1-0.3c-0.4,0-0.8,0.1-1.1,0.4c-0.3,0.2-0.5,0.5-0.5,0.9h-1.4l0,0c0-0.7,0.2-1.2,0.8-1.6
	c0.6-0.4,1.3-0.6,2.1-0.6c0.9,0,1.6,0.2,2.2,0.6c0.5,0.4,0.8,1,0.8,1.7c0,0.4-0.1,0.7-0.3,1c-0.2,0.3-0.5,0.5-0.9,0.7
	c0.4,0.2,0.8,0.4,1,0.7c0.2,0.3,0.4,0.7,0.4,1.1c0,0.7-0.3,1.3-0.8,1.7c-0.6,0.4-1.3,0.6-2.2,0.6c-0.8,0-1.6-0.2-2.2-0.6
	c-0.6-0.4-0.9-1-0.9-1.8l0,0h1.4c0,0.4,0.2,0.7,0.5,1c0.3,0.3,0.7,0.4,1.2,0.4c0.5,0,0.9-0.1,1.2-0.4c0.3-0.2,0.4-0.5,0.4-0.9
	c0-0.4-0.1-0.7-0.4-0.9c-0.2-0.2-0.6-0.3-1.2-0.3h-1.4v-1.2H118.1z"/>
<path id="XMLID_8_" class="st3" d="M129.3,80.6h-1.4v-3.3h-3.5v3.3h-1.4v-7.8h1.4v3.4h3.5v-3.4h1.4V80.6z"/>
<path id="XMLID_10_" class="st3" d="M136.3,80.6c0-0.2-0.1-0.4-0.1-0.6c0-0.2,0-0.4,0-0.5c-0.3,0.4-0.6,0.7-1,1
	c-0.4,0.2-0.9,0.4-1.4,0.4c-0.8,0-1.4-0.2-1.9-0.6c-0.4-0.4-0.6-1-0.6-1.7c0-0.8,0.3-1.3,0.9-1.8c0.6-0.4,1.4-0.6,2.5-0.6h1.6v-0.8
	c0-0.5-0.1-0.8-0.4-1.1c-0.3-0.3-0.7-0.4-1.2-0.4c-0.5,0-0.8,0.1-1.1,0.3c-0.3,0.2-0.4,0.5-0.4,0.8h-1.4l0,0c0-0.6,0.2-1.1,0.8-1.6
	c0.6-0.5,1.3-0.7,2.2-0.7c0.9,0,1.6,0.2,2.1,0.7c0.5,0.5,0.8,1.1,0.8,2v3.8c0,0.3,0,0.5,0,0.8c0,0.3,0.1,0.5,0.2,0.8H136.3z
	 M133.9,79.6c0.5,0,1-0.1,1.4-0.4c0.4-0.3,0.7-0.6,0.8-0.9V77h-1.6c-0.6,0-1,0.1-1.4,0.4c-0.4,0.3-0.5,0.6-0.5,1
	c0,0.3,0.1,0.6,0.3,0.8C133.1,79.5,133.5,79.6,133.9,79.6z"/>
<path id="XMLID_13_" class="st3" d="M142.1,77.3h-0.9v3.3h-1.4v-7.8h1.4v3.3h0.8l2.6-3.3h1.7l0,0l-3.1,3.7l3.3,4.1l0,0h-1.8
	L142.1,77.3z"/>
<path id="XMLID_15_" class="st3" d="M156.2,80.6c-0.1-0.2-0.1-0.4-0.1-0.6c0-0.2,0-0.4,0-0.5c-0.3,0.4-0.6,0.7-1,1
	c-0.4,0.2-0.9,0.4-1.4,0.4c-0.8,0-1.4-0.2-1.9-0.6c-0.4-0.4-0.6-1-0.6-1.7c0-0.8,0.3-1.3,0.9-1.8c0.6-0.4,1.4-0.6,2.5-0.6h1.6v-0.8
	c0-0.5-0.1-0.8-0.4-1.1c-0.3-0.3-0.7-0.4-1.2-0.4c-0.5,0-0.8,0.1-1.1,0.3c-0.3,0.2-0.4,0.5-0.4,0.8h-1.4l0,0c0-0.6,0.2-1.1,0.8-1.6
	c0.6-0.5,1.3-0.7,2.2-0.7c0.9,0,1.6,0.2,2.1,0.7c0.5,0.5,0.8,1.1,0.8,2v3.8c0,0.3,0,0.5,0,0.8c0,0.3,0.1,0.5,0.2,0.8H156.2z
	 M153.8,79.6c0.5,0,1-0.1,1.4-0.4c0.4-0.3,0.7-0.6,0.8-0.9V77h-1.6c-0.6,0-1,0.1-1.4,0.4c-0.3,0.3-0.5,0.6-0.5,1
	c0,0.3,0.1,0.6,0.3,0.8C153.1,79.5,153.4,79.6,153.8,79.6z"/>
<path id="XMLID_18_" class="st3" d="M159.6,80.6v-7.8h3.1c1,0,1.8,0.2,2.4,0.5c0.6,0.4,0.9,0.9,0.9,1.6c0,0.4-0.1,0.7-0.3,1
	c-0.2,0.3-0.5,0.5-0.9,0.7c0.5,0.1,0.9,0.3,1.1,0.7c0.3,0.3,0.4,0.7,0.4,1.1c0,0.7-0.3,1.3-0.8,1.7c-0.5,0.4-1.3,0.6-2.2,0.6H159.6z
	 M161.1,76.1h1.7c0.6,0,1.1-0.1,1.4-0.3c0.3-0.2,0.5-0.4,0.5-0.8c0-0.4-0.2-0.6-0.5-0.8c-0.3-0.2-0.8-0.3-1.4-0.3h-1.7V76.1z
	 M161.1,77.2v2.3h2.2c0.5,0,0.9-0.1,1.2-0.3c0.3-0.2,0.4-0.5,0.4-0.9c0-0.4-0.1-0.7-0.4-0.9c-0.3-0.2-0.7-0.3-1.2-0.3H161.1z"/>
<path id="XMLID_22_" class="st3" d="M174.1,73.9h-2.6v6.7h-1.4v-6.7h-2.6v-1.1h6.6V73.9z"/>
<path id="XMLID_24_" class="st3" d="M175.2,76.6c0-1.2,0.3-2.1,0.9-2.9c0.6-0.8,1.5-1.1,2.6-1.1c1.1,0,1.9,0.4,2.6,1.1
	c0.6,0.7,0.9,1.7,0.9,2.9v0.2c0,1.2-0.3,2.1-0.9,2.9c-0.6,0.7-1.5,1.1-2.6,1.1c-1.1,0-1.9-0.4-2.6-1.1c-0.6-0.7-0.9-1.7-0.9-2.9
	V76.6z M176.7,76.8c0,0.8,0.2,1.5,0.5,2.1c0.4,0.5,0.9,0.8,1.6,0.8c0.7,0,1.2-0.3,1.6-0.8c0.4-0.5,0.5-1.2,0.5-2.1v-0.2
	c0-0.8-0.2-1.5-0.5-2c-0.4-0.5-0.9-0.8-1.6-0.8c-0.7,0-1.2,0.3-1.6,0.8c-0.3,0.5-0.5,1.2-0.5,2V76.8z"/>
<path id="XMLID_27_" class="st3" d="M190.3,72.8v7.8h-1.4v-6.7h-2.7v2.2c0,1.5-0.2,2.7-0.6,3.4c-0.4,0.7-1.1,1.1-2.1,1.1h-0.4l0-1.2
	l0.3,0c0.5,0,0.9-0.3,1.1-0.7c0.2-0.5,0.3-1.3,0.3-2.5v-3.4H190.3z"/>
<path id="XMLID_29_" class="st3" d="M197.2,72.8h1.4v7.8h-1.4v-5.6l0,0l-3.5,5.6h-1.4v-7.8h1.4v5.6l0,0L197.2,72.8z"/>
<path id="XMLID_31_" class="st3" d="M200.7,79.5c0.4-0.5,0.7-1,0.9-1.5c0.2-0.5,0.4-1.3,0.4-2.3l0.1-2.9h5.1v6.7h1l-0.1,3.4h-1.3
	v-2.3h-5.4v2.3h-1.3l-0.1-3.4H200.7z M203.5,75.7c-0.1,0.9-0.2,1.6-0.4,2.2c-0.2,0.6-0.4,1.1-0.8,1.6h3.5v-5.5h-2.3L203.5,75.7z"/>
<path id="XMLID_34_" class="st3" d="M213.2,80.8c-1.1,0-2-0.4-2.6-1.1c-0.6-0.7-1-1.7-1-2.8v-0.3c0-1.1,0.3-2,1-2.8
	c0.7-0.7,1.4-1.1,2.4-1.1c1.1,0,1.9,0.3,2.4,1c0.5,0.6,0.8,1.5,0.8,2.6V77h-5.1l0,0c0,0.8,0.2,1.4,0.6,1.9c0.4,0.5,0.9,0.7,1.5,0.7
	c0.5,0,0.9-0.1,1.3-0.2c0.4-0.1,0.7-0.3,0.9-0.6l0.6,0.9c-0.3,0.3-0.7,0.5-1.1,0.7C214.4,80.7,213.8,80.8,213.2,80.8z M212.9,73.8
	c-0.5,0-0.9,0.2-1.2,0.6c-0.3,0.4-0.5,0.9-0.6,1.5l0,0h3.6v-0.2c0-0.6-0.2-1-0.4-1.4C214,74,213.5,73.8,212.9,73.8z"/>
<path id="XMLID_37_" class="st3" d="M224.5,77c0,1.1-0.3,2-0.8,2.7c-0.5,0.7-1.3,1-2.2,1c-0.5,0-0.9-0.1-1.3-0.2
	c-0.4-0.2-0.7-0.4-0.9-0.7v3.8h-1.4V72.8h1.1l0.2,1c0.3-0.4,0.6-0.7,1-0.9c0.4-0.2,0.8-0.3,1.3-0.3c1,0,1.7,0.4,2.3,1.2
	c0.5,0.8,0.8,1.8,0.8,3.1V77z M223.1,76.9c0-0.9-0.2-1.6-0.5-2.2c-0.4-0.6-0.9-0.9-1.6-0.9c-0.4,0-0.8,0.1-1,0.3
	c-0.3,0.2-0.5,0.4-0.7,0.8v3.8c0.2,0.3,0.4,0.6,0.7,0.8c0.3,0.2,0.6,0.3,1.1,0.3c0.7,0,1.2-0.2,1.5-0.7c0.3-0.5,0.5-1.1,0.5-1.9
	V76.9z"/>
<path id="XMLID_40_" class="st3" d="M231.2,80.6c0-0.2-0.1-0.4-0.1-0.6c0-0.2,0-0.4,0-0.5c-0.3,0.4-0.6,0.7-1,1
	c-0.4,0.2-0.9,0.4-1.4,0.4c-0.8,0-1.4-0.2-1.9-0.6c-0.4-0.4-0.6-1-0.6-1.7c0-0.8,0.3-1.3,0.9-1.8c0.6-0.4,1.4-0.6,2.5-0.6h1.6v-0.8
	c0-0.5-0.1-0.8-0.4-1.1c-0.3-0.3-0.7-0.4-1.2-0.4c-0.5,0-0.8,0.1-1.1,0.3c-0.3,0.2-0.4,0.5-0.4,0.8h-1.4l0,0c0-0.6,0.2-1.1,0.8-1.6
	c0.6-0.5,1.3-0.7,2.2-0.7c0.9,0,1.6,0.2,2.1,0.7c0.5,0.5,0.8,1.1,0.8,2v3.8c0,0.3,0,0.5,0,0.8c0,0.3,0.1,0.5,0.2,0.8H231.2z
	 M228.8,79.6c0.5,0,1-0.1,1.4-0.4c0.4-0.3,0.7-0.6,0.8-0.9V77h-1.6c-0.6,0-1,0.1-1.4,0.4c-0.3,0.3-0.5,0.6-0.5,1
	c0,0.3,0.1,0.6,0.3,0.8C228,79.5,228.4,79.6,228.8,79.6z"/>
<path id="XMLID_43_" class="st3" d="M297.1,42.6c-1.8,0-2.5,1.6-2.5,1.7l-6.8,12.5c0,0-6.2-11.3-6.8-12.5c-0.8-1.5-1.9-1.7-2.5-1.7
	l-2.8,0v21.1h3.7V49.8l6.8,12.3h2.8l6.9-12.4v13.9h3.8V42.6H297.1z"/>
<path id="XMLID_44_" class="st3" d="M249.4,42.6c-1.8,0-2.5,1.6-2.5,1.7L240,56.8c0,0-6.2-11.3-6.8-12.5c-0.8-1.5-1.9-1.7-2.5-1.7
	l-2.8,0v21.1h3.7V49.8l6.8,12.3h2.8l6.9-12.4v13.9h3.8V42.6H249.4z"/>
<path id="XMLID_45_" class="st3" d="M136.5,42.6c-1.8,0-2.5,1.6-2.5,1.7l-6.8,12.5c0,0-6.2-11.3-6.8-12.5c-0.8-1.5-1.9-1.7-2.5-1.7
	l-2.8,0v21.1h3.7V49.8l6.8,12.3h2.8l6.9-12.4v13.9h3.8V42.6H136.5z"/>
<path id="XMLID_46_" class="st3" d="M183.5,63c0-0.1-0.3-2.1-1.9-2.7c-1.2-0.5-1.9-1.4-2.4-2c-0.9-1.2-3.4-4.7-4.1-5.6
	c0.6-0.8,2.4-3.4,3.4-4.7c0.8-1,1.1-1.5,2.5-1.8c1.7-0.4,2.1-2.1,2.1-2.9l0-0.5c0,0-0.7,0-1,0c-1.2,0-4.2,0.2-5.8,2.2
	c-1,1.2-4.1,5.2-4.9,6.2l-2.3,0.4v-8.7l-3.9,0l0,21.1h3.8v-8.6l2.8-0.3c0.7,1,3.6,4.9,5.2,6.8c1.6,1.9,3.4,2.2,4.3,2.2
	c0.4,0,2.1-0.2,2.1-0.2L183.5,63z"/>
<path id="XMLID_47_" class="st3" d="M222.7,42.5c-2.5,0-4.3,2.2-4.8,2.8l-9.4,11.9V42.6l-3.9,0l0,21.2h1.3c1.8,0,2.7-0.7,3.8-2.2
	c0.7-0.9,9.9-12.5,10.5-13.3v15.3h3.8V42.5H222.7z"/>
<path id="XMLID_48_" class="st3" d="M273.8,42.6c-0.3-0.1-0.9-0.2-1.2-0.2c-0.8,0-2.6,0.2-3.4,2.4c-0.7,2-3.8,9.8-4.9,12.6
	c-0.4-1.1-5.5-13-5.5-13c-0.5-1.4-1.7-2.1-3.3-2.1c-0.2,0-0.6,0.1-0.9,0.1l-0.9,0.1c0,0,0.9,1.5,1.8,3.6c0.5,1.2,4.7,11.1,6.2,15
	l0.9,0.3l-0.8,2.2c-0.5,1.3-1.1,2-1.8,2.2c-0.2,0-0.4,0.1-0.6,0.1l-0.2,0c-0.6,0.1-1.1,0.1-1.7,0.6c-1.2,1-1,3.2-1,3.2s1.4,0,1.7,0
	c3.7,0,6.2-1.9,7.6-5.7c0,0,6.3-16.2,7-17.9c1.1-2.7,1.6-3.5,1.6-3.5L273.8,42.6z"/>
<path id="XMLID_49_" class="st3" d="M199.1,59.6c-0.5,0-1.1,0.1-1.6,0.3c-0.8,0.3-2.4,0.6-2.9,0.6c-4.5,0-6.3-2-6.3-7.3
	c0-5.3,1.5-7.6,6.5-7.6c1,0,1.8,0.3,2.5,0.6l0.3,0.1c0.4,0.1,0.8,0.2,1.2,0.2c1.4,0,2.6-0.9,2.7-1.1l0.4-0.6l-0.4-0.3
	c-0.2-0.2-0.4-0.3-0.5-0.4l-0.1,0c-1.7-1.3-3.8-1.9-6.4-1.9c-4.9,0-10.4,1.1-10.4,9.9v2.1c0,6.6,4,9.9,10.3,9.9c2.7,0,5.3-0.8,7-2.2
	l0.3-0.3l-0.2-0.4C201.7,61.2,201,59.6,199.1,59.6z"/>
<path id="XMLID_50_" class="st3" d="M161,59.8v-9.1c0-6.3-2.4-8.6-9.2-8.6c-2.7,0-6.3,0.9-8,1.8l-0.5,0.2l0.2,0.5
	c0.4,1,1.4,2.1,2.7,2.1c0.4,0,0.7-0.1,1.1-0.2c1-0.4,2.7-0.7,4.2-0.7c5,0,5.6,1.1,5.7,4.1h-0.3c-11.1,0.2-14.6,3.8-14.6,8.1
	c0,3.1,1.1,6.1,7.4,6.1c4.6,0,7-1.1,8.2-2.2c0.6,1.2,1.8,1.8,3.5,1.9C161.4,63.7,161,60.6,161,59.8z M150.1,60.5c-3.1,0-4-1-4-2.6
	c0-2.5,2.5-4.5,10.6-4.5h0.5v1C157.2,58.7,155,60.5,150.1,60.5z"/>
</svg>
