<?xml version="1.0" encoding="utf-8"?>
<!-- Generator: Adobe Illustrator 26.0.2, SVG Export Plug-In . SVG Version: 6.00 Build 0)  -->
<svg version="1.1" id="Layer_1" xmlns="http://www.w3.org/2000/svg" xmlns:xlink="http://www.w3.org/1999/xlink" x="0px" y="0px"
	 viewBox="0 0 195.03 65.09" style="enable-background:new 0 0 195.03 65.09;" xml:space="preserve">
<style type="text/css">
	.st0{fill:#FFFFFF;}
	.st1{fill:#9A0000;}
</style>
<g>
	<g>
		<g>
			<g>
				<path d="M28.32,13.7v5.2c-0.5,0.63-1.25,1.26-2.25,1.89c-1,0.63-2.19,1.15-3.57,1.56c-1.39,0.41-2.93,0.61-4.63,0.61
					c-2.39,0-4.48-0.47-6.27-1.4c-1.78-0.93-3.17-2.26-4.16-3.98c-0.99-1.72-1.48-3.76-1.48-6.11c0-2.35,0.49-4.38,1.46-6.08
					c0.98-1.7,2.37-3.02,4.19-3.95c1.82-0.93,3.96-1.4,6.44-1.4c1.15,0,2.28,0.08,3.37,0.24c1.09,0.16,2.1,0.36,3.02,0.61
					c0.92,0.25,1.69,0.55,2.3,0.88l0.06,5.39h-0.28c-0.4-1.43-0.98-2.57-1.73-3.42c-0.76-0.85-1.63-1.46-2.63-1.83
					c-1-0.37-2.05-0.55-3.17-0.55c-1.7,0-3.14,0.41-4.33,1.24c-1.19,0.83-2.08,2.01-2.68,3.54c-0.6,1.53-0.9,3.37-0.9,5.51
					c0,2.02,0.28,3.77,0.83,5.28c0.56,1.5,1.37,2.66,2.44,3.46c1.07,0.81,2.37,1.22,3.91,1.24c0.78,0,1.53-0.12,2.25-0.36
					c0.72-0.24,1.36-0.59,1.91-1.06c0.55-0.46,0.93-1.03,1.17-1.7l0.03-4.82c0-0.95-0.54-1.42-1.61-1.42h-0.5v-0.31h8.85v0.31h-0.47
					C28.8,12.28,28.28,12.76,28.32,13.7z"/>
				<path d="M33.64,20.28v2.24h-2.61V22.2c0.38,0,0.58,0,0.6,0c0.52,0,0.98-0.19,1.35-0.57c0.38-0.38,0.57-0.83,0.57-1.35H33.64z
					 M33.48,0l4.54,4.82l0.03,17.7h-4.5V3.94c0-1.18-0.13-2.49-0.38-3.94H33.48z M33.48,0l20.09,19.15l0.38,3.81L33.86,3.84L33.48,0
					z M38.05,20.28c0,0.53,0.19,0.98,0.57,1.35c0.38,0.38,0.83,0.57,1.35,0.57c0.02,0,0.22,0,0.6,0v0.31h-2.61v-2.24H38.05z
					 M46.84,0.47h2.61v2.24h-0.06c-0.02-0.55-0.22-1-0.58-1.37c-0.37-0.37-0.82-0.55-1.37-0.55c-0.38,0-0.58,0-0.6,0V0.47z
					 M53.86,0.47v18.46c0,0.78,0.03,1.48,0.09,2.09c0.06,0.62,0.16,1.27,0.28,1.94h-0.28l-4.57-5.1V0.47H53.86z M56.38,0.47v0.32
					h-0.57c-0.53,0-0.98,0.18-1.35,0.55c-0.38,0.37-0.58,0.82-0.6,1.37h-0.09V0.47H56.38z"/>
				<path d="M73.92,0.03c0.42,0,0.94,0.02,1.56,0.06c0.62,0.04,1.26,0.1,1.92,0.17c0.66,0.07,1.24,0.15,1.73,0.22
					c0.49,0.07,0.83,0.15,1.02,0.24l-0.38,4.25h-0.32c0-1.09-0.4-1.97-1.21-2.63c-0.81-0.66-1.88-0.99-3.23-0.99
					c-1.22,0-2.2,0.29-2.94,0.88c-0.75,0.59-1.14,1.3-1.18,2.14c-0.02,0.63,0.18,1.18,0.6,1.64c0.42,0.46,0.96,0.89,1.61,1.29
					l6.02,3.91c0.97,0.55,1.7,1.26,2.19,2.14c0.49,0.88,0.71,1.91,0.65,3.09c-0.11,2.06-0.89,3.66-2.36,4.8
					c-1.47,1.14-3.46,1.72-5.98,1.72c-0.92,0-1.82-0.08-2.69-0.24c-0.87-0.16-1.64-0.38-2.32-0.66c-0.67-0.28-1.21-0.62-1.61-1.02
					c-0.17-0.46-0.24-1.02-0.22-1.67c0.02-0.65,0.12-1.31,0.3-1.98c0.18-0.67,0.4-1.23,0.68-1.67h0.28
					c-0.08,1.07,0.11,2.06,0.58,2.98c0.47,0.91,1.17,1.64,2.08,2.17c0.91,0.54,2,0.79,3.26,0.77c1.39-0.02,2.46-0.37,3.21-1.06
					c0.76-0.68,1.13-1.51,1.13-2.47c0-0.65-0.19-1.24-0.58-1.76c-0.39-0.52-1.02-1.03-1.91-1.51l-5.51-3.65
					c-1.11-0.63-1.92-1.44-2.43-2.43c-0.5-0.99-0.7-2.06-0.6-3.21c0.1-1.09,0.43-2.05,0.98-2.88c0.55-0.83,1.3-1.47,2.25-1.94
					C71.46,0.26,72.6,0.03,73.92,0.03z M80.19,0.35l-0.06,0.66h-3.72V0.35H80.19z"/>
				<path d="M86.55,5.61h-0.06c-0.02-0.48-0.19-0.88-0.52-1.2c-0.33-0.32-0.72-0.47-1.18-0.47c-0.02,0-0.16,0-0.41,0V3.62h2.33
					L86.55,5.61z M86.55,20.54l0.16,1.98h-2.33V22.2c0.25,0,0.39,0,0.41,0c0.46,0,0.86-0.16,1.18-0.49c0.33-0.33,0.5-0.72,0.52-1.18
					H86.55z M91.03,3.62v18.9h-4.54V3.62H91.03z M98.74,3.62v1.26h-7.78V3.62H98.74z M97.33,12.54v1.26h-6.36v-1.26H97.33z
					 M98.4,21.26l0.72,1.26h-8.16v-1.26H98.4z M100.41,16.72l-1.2,5.8h-5.45l0.98-1.26c0.9,0,1.71-0.18,2.41-0.55
					c0.7-0.37,1.31-0.89,1.81-1.57c0.5-0.68,0.89-1.49,1.17-2.41H100.41z M97.33,9.83v2.77h-2.71v-0.06
					c0.73-0.02,1.32-0.27,1.75-0.74c0.43-0.47,0.65-1.05,0.65-1.75V9.83H97.33z M97.33,13.73v2.77h-0.31v-0.25
					c0-0.69-0.22-1.27-0.65-1.73c-0.43-0.46-1.01-0.7-1.75-0.72v-0.06H97.33z M98.74,3.15v0.76l-3.31-0.28
					c0.61,0,1.25-0.06,1.92-0.17C98.03,3.33,98.49,3.23,98.74,3.15z M98.74,4.82v3.34h-0.31V7.87c0-0.92-0.25-1.65-0.74-2.17
					c-0.49-0.52-1.2-0.8-2.13-0.82V4.82H98.74z"/>
				<path d="M104.38,5.57h-0.06c-0.02-0.48-0.19-0.88-0.52-1.18c-0.33-0.3-0.71-0.46-1.15-0.46c-0.06,0-0.14,0-0.24,0
					c-0.09,0-0.15,0-0.17,0V3.62h2.27L104.38,5.57z M104.38,20.54l0.13,1.98h-2.27V22.2c0.02,0,0.08,0,0.17,0c0.09,0,0.16,0,0.2,0
					c0.46,0,0.86-0.16,1.18-0.49c0.33-0.33,0.5-0.72,0.52-1.18H104.38z M108.85,3.62v18.9h-4.57V3.62H108.85z M111.94,3.62
					c0.86,0,1.7,0.09,2.52,0.27c0.82,0.18,1.55,0.46,2.2,0.85c0.65,0.39,1.17,0.91,1.56,1.57c0.39,0.66,0.58,1.49,0.58,2.47
					c0,0.74-0.15,1.46-0.46,2.19c-0.3,0.72-0.78,1.35-1.42,1.87c-0.64,0.52-1.48,0.87-2.5,1.04c0.61,0.19,1.19,0.56,1.75,1.1
					c0.56,0.55,0.99,1.06,1.31,1.54c0.08,0.17,0.23,0.44,0.44,0.8c0.21,0.37,0.48,0.79,0.8,1.26c0.33,0.47,0.67,0.96,1.02,1.46
					c0.42,0.57,0.79,1,1.1,1.31c0.32,0.3,0.64,0.52,0.98,0.65c0.34,0.13,0.72,0.19,1.17,0.19v0.31h-2.65
					c-1.13,0-2.09-0.08-2.88-0.25c-0.79-0.17-1.47-0.48-2.05-0.93c-0.58-0.45-1.11-1.07-1.59-1.84c-0.19-0.27-0.39-0.6-0.6-0.99
					c-0.21-0.39-0.42-0.78-0.63-1.18c-0.21-0.4-0.39-0.79-0.55-1.17c-0.16-0.38-0.27-0.69-0.33-0.94c-0.27-0.67-0.58-1.16-0.93-1.46
					c-0.35-0.3-0.67-0.46-0.96-0.46v-0.28c0.29,0,0.56,0,0.79,0c0.44,0,0.88-0.08,1.31-0.24c0.43-0.16,0.82-0.46,1.18-0.91
					c0.36-0.45,0.62-1.12,0.79-2c0.04-0.13,0.08-0.3,0.11-0.54c0.03-0.23,0.04-0.49,0.02-0.79c-0.04-0.78-0.18-1.4-0.43-1.87
					c-0.24-0.47-0.54-0.83-0.9-1.07c-0.36-0.24-0.72-0.41-1.09-0.5c-0.37-0.09-0.69-0.14-0.96-0.14c-0.4-0.02-0.76-0.03-1.09-0.02
					c-0.33,0.01-0.57,0.01-0.74-0.02c-0.02,0-0.05-0.11-0.09-0.33c-0.04-0.22-0.11-0.54-0.19-0.96H111.94z M108.79,20.54h0.06
					c0,0.52,0.18,0.93,0.55,1.23c0.37,0.29,0.76,0.44,1.18,0.44c0.17,0,0.27,0,0.31,0v0.31h-2.27L108.79,20.54z"/>
				<path d="M127.75,5.7h-5.23c-0.31-0.65-0.7-1.11-1.15-1.37c-0.45-0.26-0.89-0.39-1.31-0.39h-0.22V3.62h9.23v0.28h-0.25
					c-0.34,0-0.65,0.16-0.95,0.47C127.58,4.69,127.54,5.13,127.75,5.7z M130.84,22.93l-9.26-19.15h5.35l5.73,13.35L130.84,22.93z
					 M130.84,22.93l-0.13-3.69l6.83-15.53h2.3l-7.28,15.37c-0.04,0.11-0.14,0.32-0.28,0.65c-0.15,0.33-0.3,0.69-0.47,1.1
					c-0.17,0.41-0.32,0.8-0.46,1.18c-0.14,0.38-0.22,0.68-0.24,0.91H130.84z M136.66,5.7c0.23-0.57,0.2-1.01-0.08-1.32
					c-0.28-0.31-0.61-0.47-0.99-0.47h-0.22V3.62h6.27v0.31h-0.25c-0.42,0-0.86,0.13-1.32,0.39c-0.46,0.26-0.85,0.72-1.17,1.37
					H136.66z"/>
				<path d="M144.32,5.61h-0.09c0-0.48-0.18-0.88-0.54-1.2c-0.36-0.32-0.78-0.47-1.26-0.47c-0.02,0-0.16,0-0.41,0V3.62h2.3V5.61z
					 M144.32,20.54v1.98h-2.3V22.2c0.25,0,0.39,0,0.41,0c0.48,0,0.9-0.16,1.26-0.49c0.36-0.33,0.54-0.72,0.54-1.18H144.32z
					 M148.76,3.62v18.9h-4.54V3.62H148.76z M148.7,5.61V3.62h2.27l-0.03,0.31c-0.21,0-0.33,0-0.35,0c-0.5,0-0.93,0.16-1.28,0.47
					c-0.35,0.31-0.53,0.71-0.55,1.2H148.7z M148.7,20.54h0.06c0.02,0.46,0.2,0.86,0.55,1.18c0.35,0.33,0.77,0.49,1.28,0.49
					c0.23,0,0.36,0,0.38,0v0.31h-2.27V20.54z"/>
				<path d="M171.72,14.61l0.35,4.76c-0.4,0.67-0.96,1.28-1.67,1.81c-0.71,0.54-1.59,0.96-2.61,1.28c-1.03,0.32-2.23,0.47-3.59,0.47
					c-2.35-0.02-4.38-0.42-6.08-1.2c-1.7-0.78-3.01-1.89-3.92-3.35c-0.91-1.46-1.37-3.24-1.37-5.34c0-2.06,0.45-3.82,1.35-5.28
					c0.9-1.46,2.2-2.58,3.91-3.37c1.7-0.79,3.74-1.18,6.11-1.18c1.43,0,2.76,0.14,3.98,0.41c1.23,0.27,2.25,0.62,3.07,1.04
					l0.03,5.01h-0.25c-0.53-1.93-1.35-3.29-2.49-4.06c-1.13-0.78-2.48-1.17-4.03-1.17c-1.53,0-2.81,0.36-3.83,1.07
					c-1.02,0.71-1.78,1.71-2.3,2.99c-0.51,1.28-0.77,2.78-0.77,4.5c0,1.74,0.26,3.26,0.77,4.54c0.51,1.28,1.26,2.28,2.25,2.99
					c0.99,0.71,2.17,1.09,3.56,1.13c1.49,0,2.72-0.23,3.7-0.69c0.98-0.46,1.75-1.21,2.33-2.24c0.58-1.03,0.99-2.4,1.24-4.13H171.72z
					"/>
				<path d="M176.51,5.61h-0.06c-0.02-0.48-0.19-0.88-0.52-1.2c-0.33-0.32-0.72-0.47-1.18-0.47c-0.02,0-0.16,0-0.41,0V3.62h2.33
					L176.51,5.61z M176.51,20.54l0.16,1.98h-2.33V22.2c0.25,0,0.39,0,0.41,0c0.46,0,0.86-0.16,1.18-0.49
					c0.33-0.33,0.5-0.72,0.52-1.18H176.51z M180.98,3.62v18.9h-4.54V3.62H180.98z M188.7,3.62v1.26h-7.78V3.62H188.7z M187.28,12.54
					v1.26h-6.36v-1.26H187.28z M188.35,21.26l0.72,1.26h-8.16v-1.26H188.35z M190.37,16.72l-1.2,5.8h-5.45l0.98-1.26
					c0.9,0,1.71-0.18,2.41-0.55c0.7-0.37,1.31-0.89,1.81-1.57c0.5-0.68,0.89-1.49,1.17-2.41H190.37z M187.28,9.83v2.77h-2.71v-0.06
					c0.73-0.02,1.32-0.27,1.75-0.74c0.43-0.47,0.65-1.05,0.65-1.75V9.83H187.28z M187.28,13.73v2.77h-0.31v-0.25
					c0-0.69-0.22-1.27-0.65-1.73c-0.43-0.46-1.01-0.7-1.75-0.72v-0.06H187.28z M188.7,3.15v0.76l-3.31-0.28
					c0.61,0,1.25-0.06,1.92-0.17C187.98,3.33,188.44,3.23,188.7,3.15z M188.7,4.82v3.34h-0.31V7.87c0-0.92-0.25-1.65-0.74-2.17
					c-0.49-0.52-1.2-0.8-2.13-0.82V4.82H188.7z"/>
			</g>
		</g>
		<g>
			<path d="M4.24,48.95H6l4.16,12.29H8.51l-2.14-6.87c-0.44-1.37-0.84-2.72-1.23-4.14H5.06c-0.38,1.43-0.78,2.77-1.22,4.14
				l-2.17,6.87H0.08L4.24,48.95z M2.27,56.25h5.66v1.25H2.27V56.25z"/>
			<path d="M11.76,52.14h3.51c1.99,0,3.35,0.65,3.35,2.31c0,1.01-0.58,1.66-1.51,1.95v0.06c1.02,0.24,1.9,0.88,1.9,2.19
				c0,1.81-1.49,2.6-3.59,2.6h-3.65V52.14z M14.99,55.96c1.53,0,2.11-0.52,2.11-1.36c0-0.85-0.59-1.35-2-1.35h-1.83v2.72H14.99z
				 M15.24,60.14c1.51,0,2.24-0.58,2.24-1.59c0-0.92-0.79-1.49-2.34-1.49h-1.87v3.08H15.24z"/>
			<path d="M22.83,53.4h-3.05v-1.26h7.64v1.26h-3.05v7.85h-1.54V53.4z"/>
			<path d="M28.51,56.71c0-3.04,1.99-4.79,4.22-4.79c2.23,0,4.22,1.75,4.22,4.79c0,3.01-1.99,4.77-4.22,4.77
				C30.5,61.47,28.51,59.72,28.51,56.71z M35.35,56.71c0-2.09-1.06-3.51-2.63-3.51c-1.57,0-2.63,1.42-2.63,3.51s1.06,3.48,2.63,3.48
				C34.29,60.19,35.35,58.79,35.35,56.71z"/>
			<path d="M39.34,52.14h1.78l1.79,4.26c0.27,0.76,0.55,1.49,0.81,2.22h0.07c0.28-0.73,0.58-1.46,0.84-2.22l1.73-4.26h1.77v9.11
				h-1.4v-4.09c0-0.81,0.11-2.19,0.17-3.14h-0.07c-0.26,0.72-0.58,1.48-0.84,2.16l-1.72,4.21h-1.02l-1.76-4.21
				c-0.26-0.68-0.58-1.45-0.84-2.16h-0.07c0.06,0.94,0.17,2.33,0.17,3.14v4.09h-1.39V52.14z"/>
			<path d="M50.52,56.71c0-3.04,1.99-4.79,4.22-4.79c2.23,0,4.22,1.75,4.22,4.79c0,3.01-1.99,4.77-4.22,4.77
				C52.51,61.47,50.52,59.72,50.52,56.71z M57.37,56.71c0-2.09-1.06-3.51-2.63-3.51c-1.57,0-2.63,1.42-2.63,3.51
				s1.06,3.48,2.63,3.48C56.31,60.19,57.37,58.79,57.37,56.71z"/>
			<path d="M60.81,55.73c0-6.16,2.24-7.12,5.71-7.64c1.02-0.15,1.33-0.25,1.89-0.51l0.32,1.4c-0.49,0.32-1.12,0.47-1.88,0.58
				c-3.37,0.51-4.54,0.77-4.54,6.47c0,2.63,0.94,4.17,2.8,4.17c1.41,0,2.42-1.39,2.42-3.45c0-1.88-0.87-3.07-2.45-3.07
				c-0.89,0-1.85,0.4-2.79,1.68l-0.06-1.16c0.82-1.12,2.01-1.71,3.23-1.71c2.16,0,3.65,1.6,3.65,4.26c0,2.89-1.79,4.73-4,4.73
				C62.38,61.47,60.81,59.4,60.81,55.73z"/>
			<path d="M71.55,52.14h1.5v3.79c0,0.97-0.08,2.19-0.14,3.36h0.07c0.34-0.56,0.87-1.39,1.21-1.95l3.44-5.2h1.43v9.11h-1.5v-3.79
				c0-0.97,0.08-2.18,0.15-3.36h-0.07c-0.34,0.56-0.87,1.4-1.2,1.95l-3.45,5.2h-1.43V52.14z"/>
			<path d="M80.79,61.32l0.29-1.42c0.13,0.04,0.25,0.07,0.42,0.07c0.64,0,1.05-0.58,1.21-1.93c0.24-1.97,0.47-3.93,0.7-5.91H89v9.11
				h-1.54V53.4h-2.83c-0.2,1.67-0.39,3.36-0.6,5.04c-0.26,2.03-1.07,3.04-2.41,3.04C81.28,61.47,81.05,61.42,80.79,61.32z"/>
			<path d="M92.08,52.14h1.5v3.79c0,0.97-0.08,2.19-0.14,3.36h0.07c0.34-0.56,0.87-1.39,1.21-1.95l3.44-5.2h1.43v9.11h-1.5v-3.79
				c0-0.97,0.08-2.18,0.15-3.36h-0.07c-0.34,0.56-0.87,1.4-1.2,1.95l-3.45,5.2h-1.43V52.14z"/>
			<path d="M105.74,56.71c0-3.04,2.05-4.79,4.38-4.79c1.19,0,2.02,0.49,2.66,1.07L112,54c-0.53-0.48-1.09-0.8-1.81-0.8
				c-1.65,0-2.86,1.42-2.86,3.51s1.14,3.48,2.82,3.48c0.83,0,1.57-0.4,2.14-0.91l0.67,1.03c-0.82,0.73-1.85,1.16-2.94,1.16
				C107.59,61.47,105.74,59.72,105.74,56.71z"/>
			<path d="M118.71,52.14h7.28v9.11h-1.54V53.4h-4.2v7.85h-1.54V52.14z"/>
			<path d="M129.07,52.14h1.27l0.13,1.05h0.05c0.82-0.68,1.85-1.27,2.9-1.27c2.35,0,3.61,1.83,3.61,4.64c0,3.1-1.86,4.91-3.94,4.91
				c-0.83,0-1.69-0.38-2.52-1.05l0.04,1.59v3.08h-1.54V52.14z M135.44,56.57c0-2.01-0.69-3.36-2.4-3.36c-0.77,0-1.55,0.42-2.43,1.24
				v4.77c0.82,0.69,1.62,0.95,2.22,0.95C134.33,60.18,135.44,58.82,135.44,56.57z"/>
			<path d="M138.79,56.71c0-3.04,1.99-4.79,4.22-4.79c2.23,0,4.22,1.75,4.22,4.79c0,3.01-1.99,4.77-4.22,4.77
				C140.78,61.47,138.79,59.72,138.79,56.71z M145.64,56.71c0-2.09-1.06-3.51-2.63-3.51s-2.63,1.42-2.63,3.51s1.06,3.48,2.63,3.48
				S145.64,58.79,145.64,56.71z"/>
			<path d="M149.08,55.73c0-6.16,2.24-7.12,5.71-7.64c1.02-0.15,1.33-0.25,1.89-0.51l0.32,1.4c-0.49,0.32-1.12,0.47-1.88,0.58
				c-3.37,0.51-4.54,0.77-4.54,6.47c0,2.63,0.94,4.17,2.8,4.17c1.41,0,2.42-1.39,2.42-3.45c0-1.88-0.87-3.07-2.45-3.07
				c-0.89,0-1.85,0.4-2.79,1.68l-0.06-1.16c0.82-1.12,2.01-1.71,3.23-1.71c2.16,0,3.65,1.6,3.65,4.26c0,2.89-1.79,4.73-4,4.73
				C150.65,61.47,149.08,59.4,149.08,55.73z"/>
			<path d="M159.14,56.71c0-2.96,2-4.79,4.09-4.79c2.32,0,3.63,1.67,3.63,4.27c0,0.33-0.03,0.65-0.07,0.87h-6.13
				c0.11,1.93,1.29,3.18,3.02,3.18c0.87,0,1.59-0.28,2.27-0.73l0.55,1.01c-0.8,0.52-1.77,0.94-3.01,0.94
				C161.07,61.47,159.14,59.7,159.14,56.71z M165.5,55.96c0-1.82-0.82-2.82-2.24-2.82c-1.28,0-2.42,1.03-2.61,2.82H165.5z"/>
			<path d="M169.11,52.14h5.67v1.26h-4.13v7.85h-1.54V52.14z"/>
			<path d="M175.33,56.71c0-3.04,1.99-4.79,4.22-4.79c2.23,0,4.22,1.75,4.22,4.79c0,3.01-1.99,4.77-4.22,4.77
				C177.31,61.47,175.33,59.72,175.33,56.71z M182.17,56.71c0-2.09-1.06-3.51-2.63-3.51c-1.57,0-2.63,1.42-2.63,3.51
				s1.06,3.48,2.63,3.48C181.11,60.19,182.17,58.79,182.17,56.71z"/>
			<path d="M186.16,52.14h1.78l1.79,4.26c0.27,0.76,0.55,1.49,0.81,2.22h0.07c0.28-0.73,0.58-1.46,0.84-2.22l1.73-4.26h1.77v9.11
				h-1.4v-4.09c0-0.81,0.11-2.19,0.17-3.14h-0.07c-0.26,0.72-0.58,1.48-0.84,2.16l-1.72,4.21h-1.02l-1.76-4.21
				c-0.26-0.68-0.58-1.45-0.84-2.16h-0.07c0.06,0.94,0.17,2.33,0.17,3.14v4.09h-1.39V52.14z"/>
		</g>
	</g>
	<rect y="36.06" class="st1" width="195.03" height="2.39"/>
</g>
</svg>
