<?xml version="1.0"?>
<svg xmlns="http://www.w3.org/2000/svg" height="512px" viewBox="-16 -16 521.33228 521" width="512px" class=""><g><path d="m420.339844 152.507812c-2.179688 0-4.359375-.828124-6.019532-2.496093-3.332031-3.324219-3.332031-8.722657 0-12.046875 8.476563-8.46875 13.140626-19.730469 13.140626-31.714844 0-11.976562-4.664063-23.230469-13.140626-31.707031-17.480468-17.472657-45.925781-17.480469-63.421874 0-3.324219 3.328125-8.71875 3.328125-12.042969 0-3.332031-3.324219-3.332031-8.722657 0-12.046875 24.132812-24.125 63.394531-24.121094 87.507812 0 11.691407 11.683594 18.140625 27.230468 18.140625 43.753906 0 16.53125-6.445312 32.078125-18.140625 43.761719-1.667969 1.667969-3.84375 2.496093-6.023437 2.496093zm0 0" data-original="#000000" class="active-path" data-old_color="#FF2100" fill="#ED0000"/><path d="m451.394531 185.445312c-2.179687 0-4.355469-.832031-6.019531-2.496093-3.328125-3.324219-3.328125-8.71875 0-12.042969 35.121094-35.128906 35.121094-92.289062 0-127.414062-35.117188-35.117188-92.277344-35.128907-127.414062 0-3.324219 3.324218-8.714844 3.324218-12.042969 0-3.328125-3.332032-3.328125-8.722657 0-12.050782 41.769531-41.777344 109.746093-41.765625 151.503906 0 41.769531 41.769532 41.769531 109.738282 0 151.507813-1.667969 1.664062-3.847656 2.496093-6.027344 2.496093zm0 0" data-original="#000000" class="active-path" data-old_color="#FF2100" fill="#ED0000"/><path d="m354.84375 488.859375c-2.179688 0-4.363281-.832031-6.027344-2.496094l-112.921875-112.921875c-3.324219-3.324218-3.324219-8.714844 0-12.042968l84.339844-84.332032c3.328125-3.332031 8.71875-3.332031 12.042969 0l112.921875 112.914063c3.324219 3.332031 3.324219 8.722656 0 12.046875l-84.335938 84.335937c-1.664062 1.664063-3.839843 2.496094-6.019531 2.496094zm-100.878906-121.4375 100.875 100.871094 72.285156-72.285157-100.871094-100.871093zm0 0" data-original="#000000" class="active-path" data-old_color="#FF2100" fill="#ED0000"/><path d="m121.4375 255.460938c-2.175781 0-4.355469-.828126-6.019531-2.496094l-112.921875-112.917969c-3.328125-3.328125-3.328125-8.71875 0-12.050781l84.332031-84.332032c3.332031-3.328124 8.722656-3.328124 12.050781 0l112.917969 112.921876c3.328125 3.328124 3.328125 8.71875 0 12.046874l-84.332031 84.332032c-1.664063 1.667968-3.847656 2.496094-6.027344 2.496094zm-100.871094-121.4375 100.871094 100.871093 72.289062-72.285156-100.871093-100.875zm0 0" data-original="#000000" class="active-path" data-old_color="#FF2100" fill="#ED0000"/><path d="m332.945312 164.191406c-2.179687 0-4.363281-.832031-6.023437-2.496094-3.324219-3.324218-3.324219-8.71875 0-12.042968l26.953125-26.957032c3.328125-3.332031 8.71875-3.332031 12.046875 0 3.324219 3.324219 3.324219 8.714844 0 12.042969l-26.957031 26.957031c-1.660156 1.667969-3.839844 2.496094-6.019532 2.496094zm0 0" data-original="#000000" class="active-path" data-old_color="#FF2100" fill="#ED0000"/><path d="m255.589844 241.546875c-2.179688 0-4.359375-.832031-6.019532-2.496094-3.328124-3.324219-3.328124-8.71875 0-12.042969l19.355469-19.363281c3.324219-3.328125 8.722657-3.328125 12.046875 0 3.328125 3.324219 3.328125 8.714844 0 12.046875l-19.359375 19.359375c-1.664062 1.664063-3.84375 2.496094-6.023437 2.496094zm0 0" data-original="#000000" class="active-path" data-old_color="#FF2100" fill="#ED0000"/><path d="m329.910156 241.960938c-21.265625 0-42.539062-8.089844-58.726562-24.277344-32.382813-32.382813-32.382813-85.074219 0-117.453125 3.195312-3.191407 8.847656-3.191407 12.046875 0l105.402343 105.40625c1.601563 1.59375 2.496094 3.761719 2.496094 6.019531s-.894531 4.425781-2.496094 6.027344c-16.1875 16.1875-37.460937 24.277344-58.722656 24.277344zm-52.316406-123.273438c-19.941406 25.871094-18.058594 63.25 5.636719 86.945312 23.691406 23.683594 61.074219 25.566407 86.945312 5.632813zm0 0" data-original="#000000" class="active-path" data-old_color="#FF2100" fill="#ED0000"/><path d="m375.082031 143.589844c-7.96875 0-15.457031-3.09375-21.078125-8.730469-5.632812-5.628906-8.738281-13.109375-8.738281-21.078125 0-7.964844 3.105469-15.449219 8.738281-21.082031 11.246094-11.253907 30.894532-11.257813 42.160156-.003907 11.617188 11.632813 11.617188 30.542969 0 42.171876-5.632812 5.628906-13.121093 8.722656-21.082031 8.722656zm15.058594-14.75h.082031zm-15.058594-27.832032c-3.417969 0-6.617187 1.324219-9.03125 3.738282-2.414062 2.417968-3.746093 5.625-3.746093 9.035156s1.332031 6.621094 3.746093 9.03125c4.816407 4.828125 13.234375 4.835938 18.070313.003906 4.972656-4.984375 4.972656-13.089844 0-18.074218-2.414063-2.410157-5.625-3.734376-9.039063-3.734376zm0 0" data-original="#000000" class="active-path" data-old_color="#FF2100" fill="#ED0000"/><path d="m277.628906 411.648438c-2.179687 0-4.359375-.832032-6.019531-2.5-3.332031-3.324219-3.332031-8.714844 0-12.042969l84.332031-84.332031c3.328125-3.332032 8.71875-3.332032 12.042969 0 3.332031 3.324218 3.332031 8.714843 0 12.042968l-84.332031 84.332032c-1.660156 1.667968-3.84375 2.5-6.023438 2.5zm0 0" data-original="#000000" class="active-path" data-old_color="#FF2100" fill="#ED0000"/><path d="m319.800781 453.816406c-2.179687 0-4.359375-.835937-6.023437-2.496094-3.328125-3.328124-3.328125-8.722656 0-12.046874l84.332031-84.335938c3.332031-3.324219 8.722656-3.324219 12.050781 0 3.324219 3.324219 3.324219 8.722656 0 12.046875l-84.335937 84.335937c-1.667969 1.660157-3.847657 2.496094-6.023438 2.496094zm0 0" data-original="#000000" class="active-path" data-old_color="#FF2100" fill="#ED0000"/><path d="m42.695312 176.714844c-2.179687 0-4.359374-.832032-6.023437-2.496094-3.328125-3.328125-3.328125-8.71875 0-12.042969l84.339844-84.339843c3.324219-3.324219 8.714843-3.324219 12.042969 0 3.324218 3.324218 3.324218 8.722656 0 12.046874l-84.335938 84.335938c-1.664062 1.664062-3.839844 2.496094-6.023438 2.496094zm0 0" data-original="#000000" class="active-path" data-old_color="#FF2100" fill="#ED0000"/><path d="m393.175781 441.542969c-2.175781 0-4.355469-.832031-6.019531-2.496094l-127.292969-127.289063c-3.324219-3.324218-3.324219-8.71875 0-12.046874 3.332031-3.324219 8.722657-3.324219 12.050781 0l127.289063 127.289062c3.324219 3.328125 3.324219 8.722656 0 12.046875-1.667969 1.664063-3.847656 2.496094-6.027344 2.496094zm0 0" data-original="#000000" class="active-path" data-old_color="#FF2100" fill="#ED0000"/><path d="m183.078125 231.449219c-2.179687 0-4.363281-.835938-6.023437-2.496094l-127.21875-127.230469c-3.324219-3.328125-3.324219-8.71875 0-12.042968 3.324218-3.332032 8.71875-3.332032 12.042968 0l127.21875 127.226562c3.332032 3.324219 3.332032 8.714844 0 12.046875-1.660156 1.660156-3.839844 2.496094-6.019531 2.496094zm0 0" data-original="#000000" class="active-path" data-old_color="#FF2100" fill="#ED0000"/><path d="m84.871094 218.882812c-2.179688 0-4.363282-.835937-6.027344-2.496093-3.324219-3.324219-3.324219-8.722657 0-12.046875l84.335938-84.335938c3.324218-3.324218 8.71875-3.324218 12.046874 0 3.324219 3.328125 3.324219 8.71875 0 12.042969l-84.335937 84.339844c-1.664063 1.660156-3.84375 2.496093-6.019531 2.496093zm0 0" data-original="#000000" class="active-path" data-old_color="#FF2100" fill="#ED0000"/><path d="m149.230469 401.363281c-15.820313 0-31.632813-6.019531-43.671875-18.054687-24.078125-24.082032-24.078125-63.257813 0-87.335938l97.878906-97.878906c7.472656-7.472656 19.613281-7.472656 27.085938 0l60.242187 60.242188c7.464844 7.46875 7.464844 19.621093 0 27.089843l-97.878906 97.882813c-12.039063 12.035156-27.851563 18.054687-43.65625 18.054687zm67.746093-191.839843c-.539062 0-1.082031.207031-1.496093.617187l-97.878907 97.878906c-17.433593 17.4375-17.433593 45.800781 0 63.238281 17.433594 17.425782 45.792969 17.4375 63.242188 0l97.871094-97.878906c.828125-.828125.828125-2.171875 0-3l-60.234375-60.238281c-.421875-.410156-.960938-.617187-1.503907-.617187zm0 0" data-original="#000000" class="active-path" data-old_color="#FF2100" fill="#ED0000"/></g> </svg>
