<svg xmlns="http://www.w3.org/2000/svg" width="15" height="15" viewBox="0 0 15 15"><g><g><path d="M15 6.708c0-1.792-.718-3.477-2.022-4.745a6.962 6.962 0 0 0-4.88-1.965.54.54 0 0 0-.547.533.54.54 0 0 0 .547.53c1.551 0 3.01.588 4.107 1.654a5.53 5.53 0 0 1 1.7 3.993.54.54 0 0 0 .548.531.54.54 0 0 0 .546-.531zM7.55 3.619a.54.54 0 0 0 .548.532c1.45 0 2.63 1.147 2.63 2.557 0 .294.245.531.547.531a.54.54 0 0 0 .547-.531c0-1.996-1.67-3.62-3.724-3.62a.54.54 0 0 0-.547.531zM5.74 5.743c-.048-.85-1.748-3.098-2.56-3.388a1.701 1.701 0 0 0-1.13-.007c-.873.287-1.505.796-1.825 1.476-.31.658-.3 1.423.029 2.21.85 2.028 2.04 3.804 3.536 5.275l.01.01c1.514 1.452 3.337 2.606 5.42 3.432.418.165.828.248 1.222.248.37 0 .724-.074 1.052-.22.7-.312 1.224-.925 1.518-1.776.13-.376.128-.746-.005-1.095-.3-.791-2.614-2.443-3.489-2.49-.833-.042-1.258.56-1.462.85a.523.523 0 0 0 .143.74c.25.165.59.103.76-.14.24-.341.35-.395.498-.389.473.055 2.337 1.383 2.524 1.798a.535.535 0 0 1-.006.388c-.195.565-.52.961-.937 1.147-.396.177-.882.16-1.405-.046-1.953-.773-3.658-1.853-5.07-3.209l-.001-.001c-1.392-1.372-2.5-3.027-3.295-4.923-.213-.508-.23-.98-.048-1.366.192-.406.6-.721 1.18-.91a.585.585 0 0 1 .398-.007c.429.182 1.795 1.994 1.85 2.45.008.149-.048.255-.4.489a.521.521 0 0 0-.142.737c.17.243.51.305.76.14.297-.197.917-.61.874-1.423z"/></g></g></svg>