<?xml version="1.0" encoding="utf-8"?>
<!-- Generator: Adobe Illustrator 22.0.0, SVG Export Plug-In . SVG Version: 6.00 Build 0)  -->
<svg version="1.1" id="LOGO" xmlns="http://www.w3.org/2000/svg" xmlns:xlink="http://www.w3.org/1999/xlink" x="0px" y="0px"
	 viewBox="0 0 1162.2 510.2" style="enable-background:new 0 0 1162.2 510.2;" xml:space="preserve">
<style type="text/css">
	.st0{fill:#FFFFFF;}
	.st1{fill:#FFCE00;}
	.st2{fill:url(#SVGID_1_);}
	.st3{filter:url(#Adobe_OpacityMaskFilter);}
	.st4{fill:url(#SVGID_3_);}
	.st5{mask:url(#SVGID_2_);fill:url(#SVGID_4_);}
	.st6{fill:url(#SVGID_5_);}
	.st7{fill:url(#SVGID_6_);}
	.st8{fill:url(#SVGID_7_);}
	.st9{fill:url(#SVGID_8_);}
	.st10{fill:url(#SVGID_9_);}
	.st11{fill:url(#SVGID_10_);}
	.st12{fill:url(#SVGID_11_);}
	.st13{fill:url(#SVGID_12_);}
	.st14{fill:url(#SVGID_13_);}
	.st15{fill:url(#SVGID_14_);}
	.st16{fill:url(#SVGID_15_);}
	.st17{fill:url(#SVGID_16_);}
	.st18{fill:url(#SVGID_17_);}
	.st19{fill:url(#SVGID_18_);}
	.st20{clip-path:url(#SVGID_20_);}
	.st21{filter:url(#Adobe_OpacityMaskFilter_1_);}
	.st22{fill:url(#SVGID_22_);}
	.st23{mask:url(#SVGID_21_);fill:url(#SVGID_23_);}
</style>
<g>
	<g>
		<g>
			<path class="st0" d="M907.1,223.3v11.6h-24.2v51.1h-16.3v-51.1h-24.2v-11.6H907.1z"/>
			<path class="st0" d="M849.3,274.4v11.6h-51.9v-62.8h16.3v51.1H849.3z"/>
			<path class="st0" d="M535,274.4v11.6h-54.5v-62.8H534v11.6h-37.2v13.8h33.9V260h-33.9v14.5H535z"/>
			<g>
				<path class="st0" d="M451.3,262.7c7-3.8,11.3-11.3,11.3-19.1c0-6.5-1.9-11.6-5.9-14.9c-4.6-3.8-11-5.4-21.7-5.4h-37.4l-0.7,3.8
					c0,0,0.7,1.1,1.4,2.5c1.2,2,1.1,2.6,1.1,3.9v52.6h16.3V266c0,0,14.3,0,20.3,0l10.9,20.1h18L451.3,262.7z M443,252.6
					c-1.3,1.2-2.7,1.8-5.1,1.8h-22.3v-19.1h17.6c5.2,0,8,0.6,9.9,2.1c1.8,1.5,2.7,3.7,2.7,7.1C445.9,247.9,445,250.6,443,252.6z"/>
			</g>
		</g>
		<path class="st0" d="M603.4,223.3v41.6c-3.8-4.8-7.8-9.4-14.6-16.8c-5.5-6-17-18.4-22.8-24.8h-15.8l-0.7,3.8c0,0,0.7,1.1,1.4,2.5
			c0.9,1.5,1.1,2.2,1.1,3c0,0.1,0,53.5,0,53.5l14.7,0v-41.6c2.9,3.9,8.1,9.9,11.6,13.7c6.9,7.5,17.4,19.2,25.5,28H618v-62.8
			L603.4,223.3z"/>
		<path class="st0" d="M763.2,223.3v38.4c0,4.3-0.9,6.8-2.9,8.8c-2.6,2.5-7,3.6-13.3,3.6c-6.4,0-10.9-1.2-13.5-3.6
			c-2.1-2-2.9-4.5-2.9-8.8v-38.4h-18.2l-0.7,3.8c0,0,0.7,1.1,1.4,2.5c0.8,1.4,1,2.1,1.1,2.9c0,0.1,0,29.8,0,29.8
			c0,16.4,11.1,24.8,32.6,24.8h0.5c21.5,0,32-8.1,32-24.8v-39H763.2z"/>
		<path class="st0" d="M677.9,223.3h-20.4c-6.2,12.8-17,36.4-27,62.8h16.4c1.3-3.6,2.7-7.2,4.1-10.9h33.5c1.4,3.7,2.8,7.3,4.1,10.9
			h16.4C694.8,259.6,684.1,236.1,677.9,223.3z M655.6,263.4c4.3-10.7,8.6-20.8,12.1-28.7c3.5,7.8,7.8,18,12.1,28.7H655.6z"/>
	</g>
	<rect x="1016.3" y="113.4" class="st1" width="32.6" height="283.5"/>
	<g>
		<linearGradient id="SVGID_1_" gradientUnits="userSpaceOnUse" x1="226.7549" y1="391.503" x2="226.7549" y2="118.7935">
			<stop  offset="0" style="stop-color:#E5E5E5"/>
			<stop  offset="0.6866" style="stop-color:#FFFFFF"/>
			<stop  offset="1" style="stop-color:#919191"/>
		</linearGradient>
		<path class="st2" d="M333.3,249.8c-4.8-10.2-16.2-32.3-27.6-53.2c-16.2-29.4-41.5-71.3-44.1-74.9c-0.7-1-1.3-1.6-1.9-2
			c-0.3-0.2-0.6-0.4-1-0.5c-0.6-0.2-2.1-0.1-3.1,0c-0.6,0.1-1.3,0-1.8,0c-5.4-0.2-16.3-0.5-27-0.5c-13.2,0-29,0.4-31.1,0.6
			c-1.1,0.1-1.5,0.3-1.9,0.5c-0.5,0.3-1.1,0.6-1.9,1.8c-2.5,3.7-27.9,45.5-44.1,74.9c-11.5,20.9-22.8,43-27.6,53.2
			c-1.3,2.7-1.5,4.5-1.5,5.3c0,1.5,0.5,3.3,1.5,5.3c4.8,10.2,16.2,32.3,27.6,53.2c16.2,29.4,41.5,71.3,44.1,74.9
			c0.4,0.6,0.8,1,1.1,1.4c0.6,0.6,1.1,1,1.7,1.2c0.6,0.2,1.9,0.1,3,0c0.6-0.1,1.3,0,1.8,0c6.5,0.2,16.5,0.5,27.1,0.5
			c13.2,0,28.5-0.3,30.8-0.6l0.4,0c0.9-0.1,1.4-0.2,1.6-0.4c0.5-0.2,1-0.6,2.1-2.1c2.6-3.6,27.8-45.3,44-74.7
			c11.5-20.9,22.8-43,27.6-53.2c1.3-2.7,1.5-4.8,1.5-5.7C334.8,253.3,334.3,251.9,333.3,249.8z M258.6,260.7
			c-10.8,24.3-18.5,39.4-29.9,61.3c-0.7,1.3-1.2,2.1-1.9,2.1c-0.8,0-1.3-0.8-1.9-2.1c-11.4-21.9-19.1-37.1-29.9-61.3
			c-0.9-2.1-1.6-3.6-1.6-5.6c0-1.9,0.7-3.4,1.6-5.5c10.8-24.3,18.5-39.4,29.9-61.3c0.7-1.3,1.2-2.1,1.9-2.1c0,0,0,0,0,0c0,0,0,0,0,0
			c0,0,0,0,0,0c0.8,0,1.3,0.8,1.9,2.1c11.4,21.9,19.1,37.1,29.9,61.3c0.9,2.1,1.6,3.6,1.6,5.6C260.2,257.1,259.5,258.6,258.6,260.7z
			"/>
		<defs>
			<filter id="Adobe_OpacityMaskFilter" filterUnits="userSpaceOnUse" x="118.7" y="118.8" width="216" height="272.7">
				
					<feColorMatrix  type="matrix" values="-1 0 0 0 1  0 -1 0 0 1  0 0 -1 0 1  0 0 0 1 0" color-interpolation-filters="sRGB" result="source"/>
				<feFlood  style="flood-color:white;flood-opacity:1" result="back"/>
				<feBlend  in="source" in2="back" mode="normal"/>
			</filter>
		</defs>
		<mask maskUnits="userSpaceOnUse" x="118.7" y="118.8" width="216" height="272.7" id="SVGID_2_">
			<g class="st3">
				<linearGradient id="SVGID_3_" gradientUnits="userSpaceOnUse" x1="223.3291" y1="410.9541" x2="223.3291" y2="257.2432">
					<stop  offset="0.8545" style="stop-color:#FFFFFF"/>
					<stop  offset="1" style="stop-color:#000000"/>
				</linearGradient>
				<rect x="84.6" y="257.2" class="st4" width="277.5" height="153.7"/>
			</g>
		</mask>
		
			<radialGradient id="SVGID_4_" cx="210.5195" cy="189.1255" r="136.4821" gradientTransform="matrix(0.9963 0 0 1 2.919 0)" gradientUnits="userSpaceOnUse">
			<stop  offset="0.401" style="stop-color:#FFFFFF"/>
			<stop  offset="1" style="stop-color:#919191"/>
		</radialGradient>
		<path class="st5" d="M333.3,249.8c-4.8-10.2-16.2-32.3-27.6-53.2c-16.2-29.4-41.5-71.3-44.1-74.9c-0.7-1-1.3-1.6-1.9-2
			c-0.3-0.2-0.6-0.4-1-0.5c-0.6-0.2-2.1-0.1-3.1,0c-0.6,0.1-1.3,0-1.8,0c-5.4-0.2-16.3-0.5-27-0.5c-13.2,0-29,0.4-31.1,0.6
			c-1.1,0.1-1.5,0.3-1.9,0.5c-0.5,0.3-1.1,0.6-1.9,1.8c-2.5,3.7-27.9,45.5-44.1,74.9c-11.5,20.9-22.8,43-27.6,53.2
			c-1.3,2.7-1.5,4.5-1.5,5.3c0,1.5,0.5,3.3,1.5,5.3c4.8,10.2,16.2,32.3,27.6,53.2c16.2,29.4,41.5,71.3,44.1,74.9
			c0.4,0.6,0.8,1,1.1,1.4c0.6,0.6,1.1,1,1.7,1.2c0.6,0.2,1.9,0.1,3,0c0.6-0.1,1.3,0,1.8,0c6.5,0.2,16.5,0.5,27.1,0.5
			c13.2,0,28.5-0.3,30.8-0.6l0.4,0c0.9-0.1,1.4-0.2,1.6-0.4c0.5-0.2,1-0.6,2.1-2.1c2.6-3.6,27.8-45.3,44-74.7
			c11.5-20.9,22.8-43,27.6-53.2c1.3-2.7,1.5-4.8,1.5-5.7C334.8,253.3,334.3,251.9,333.3,249.8z M258.6,260.7
			c-10.8,24.3-18.5,39.4-29.9,61.3c-0.7,1.3-1.2,2.1-1.9,2.1c-0.8,0-1.3-0.8-1.9-2.1c-11.4-21.9-19.1-37.1-29.9-61.3
			c-0.9-2.1-1.6-3.6-1.6-5.6c0-1.9,0.7-3.4,1.6-5.5c10.8-24.3,18.5-39.4,29.9-61.3c0.7-1.3,1.2-2.1,1.9-2.1c0,0,0,0,0,0c0,0,0,0,0,0
			c0,0,0,0,0,0c0.8,0,1.3,0.8,1.9,2.1c11.4,21.9,19.1,37.1,29.9,61.3c0.9,2.1,1.6,3.6,1.6,5.6C260.2,257.1,259.5,258.6,258.6,260.7z
			"/>
		<g>
			<linearGradient id="SVGID_5_" gradientUnits="userSpaceOnUse" x1="172.8329" y1="390.1648" x2="172.8329" y2="255.825">
				<stop  offset="1.042330e-02" style="stop-color:#E5E5E5"/>
				<stop  offset="0.3385" style="stop-color:#A7A7A7"/>
				<stop  offset="0.6941" style="stop-color:#303030"/>
				<stop  offset="0.8452" style="stop-color:#131313"/>
				<stop  offset="0.948" style="stop-color:#090909"/>
				<stop  offset="0.9619" style="stop-color:#0C0C0C"/>
				<stop  offset="0.972" style="stop-color:#151515"/>
				<stop  offset="0.981" style="stop-color:#252525"/>
				<stop  offset="0.9892" style="stop-color:#3C3C3C"/>
				<stop  offset="0.997" style="stop-color:#595959"/>
				<stop  offset="1" style="stop-color:#666666"/>
			</linearGradient>
			<path class="st6" d="M186.6,264c0,0-3.2-6-3.3-8.3c0-0.3,0-0.4,0-0.7c0.1-0.6-0.2-0.4-0.7,0.1c-0.9,0.9-2.6,1.7-6.6,1.7
				c-3.5,0-33.8,0-48.1,0c-2.1,0-4.9-0.2-4.9,3.2c0,2,1.7,5.9,5.2,12.8c19.1,37.4,40.3,74.7,63.1,111.2c0,0,3.5,5.6,3.8,6
				c0.4,0.4,0.8,0.6,1.6,0.6c0,0,14.4-26.4,26.1-55.2C209.8,311.4,197.8,287.8,186.6,264z"/>
			<linearGradient id="SVGID_6_" gradientUnits="userSpaceOnUse" x1="196.6624" y1="390.5377" x2="196.6624" y2="390.537">
				<stop  offset="1.042330e-02" style="stop-color:#E5E5E5"/>
				<stop  offset="0.3385" style="stop-color:#A7A7A7"/>
				<stop  offset="0.6941" style="stop-color:#303030"/>
				<stop  offset="0.8452" style="stop-color:#131313"/>
				<stop  offset="0.948" style="stop-color:#090909"/>
				<stop  offset="0.9619" style="stop-color:#0C0C0C"/>
				<stop  offset="0.972" style="stop-color:#151515"/>
				<stop  offset="0.981" style="stop-color:#252525"/>
				<stop  offset="0.9892" style="stop-color:#3C3C3C"/>
				<stop  offset="0.997" style="stop-color:#595959"/>
				<stop  offset="1" style="stop-color:#666666"/>
			</linearGradient>
			<path class="st7" d="M196.7,390.5C196.7,390.5,196.7,390.5,196.7,390.5C196.7,390.5,196.7,390.5,196.7,390.5z"/>
		</g>
		<linearGradient id="SVGID_7_" gradientUnits="userSpaceOnUse" x1="265.4262" y1="390.1588" x2="265.4262" y2="255.702">
			<stop  offset="1.042330e-02" style="stop-color:#E5E5E5"/>
			<stop  offset="0.3385" style="stop-color:#A7A7A7"/>
			<stop  offset="0.6941" style="stop-color:#303030"/>
			<stop  offset="0.8452" style="stop-color:#131313"/>
			<stop  offset="0.9538" style="stop-color:#090909"/>
			<stop  offset="0.9661" style="stop-color:#0C0C0C"/>
			<stop  offset="0.9751" style="stop-color:#151515"/>
			<stop  offset="0.9831" style="stop-color:#252525"/>
			<stop  offset="0.9904" style="stop-color:#3C3C3C"/>
			<stop  offset="0.9973" style="stop-color:#595959"/>
			<stop  offset="1" style="stop-color:#666666"/>
		</linearGradient>
		<path class="st8" d="M332.1,255.5c-0.5,0.5-2,1.3-5.2,1.3c-1.2,0-28,0-39.7,0c-18.2,0-16.3-0.5-21.1,9.1
			c-2.1,4.3-4.3,9.3-6.5,13.5c-15.9,33.2-54.6,100.1-59.9,108.3c-2,3.1-2.3,3.3-0.8,3.3c0,0,13.1,0.5,27.8,0.5c22.9,0,31-0.6,31-0.6
			c13.3-20.6,44.9-72.9,67.4-118.2c5.2-10.4,7.8-15,7.5-17.2C332.7,255,332.3,255.3,332.1,255.5z"/>
		<linearGradient id="SVGID_8_" gradientUnits="userSpaceOnUse" x1="220.8923" y1="254.25" x2="220.8923" y2="118.9144">
			<stop  offset="0" style="stop-color:#303030"/>
			<stop  offset="1.086217e-02" style="stop-color:#222222"/>
			<stop  offset="2.473522e-02" style="stop-color:#171717"/>
			<stop  offset="4.003730e-02" style="stop-color:#131313"/>
			<stop  offset="0.1396" style="stop-color:#0E0E0E"/>
			<stop  offset="0.2521" style="stop-color:#000000"/>
		</linearGradient>
		<path class="st9" d="M256.7,119.8c-1,0-1.7,0.7-3,2.8c-11.2,17.4-49.9,90.3-65.7,124.3c-1.9,4.2-2.9,6.2-2.9,8.2l8.2,0
			c0,0,0,0,0,0c0-1.9,0.7-3.4,1.6-5.5c10.8-24.3,18.5-39.4,29.9-61.3c0.7-1.3,1.2-2.1,1.9-2.1c0,0,0,0,0,0l3.2-9.3
			C241.1,149,256.7,119.8,256.7,119.8z"/>
		<linearGradient id="SVGID_9_" gradientUnits="userSpaceOnUse" x1="247.5745" y1="255.1882" x2="247.5745" y2="176.8442">
			<stop  offset="0" style="stop-color:#747474"/>
			<stop  offset="0.1411" style="stop-color:#6F6F6F"/>
			<stop  offset="0.3157" style="stop-color:#5F5F5F"/>
			<stop  offset="0.5081" style="stop-color:#464646"/>
			<stop  offset="0.7118" style="stop-color:#242424"/>
			<stop  offset="0.7954" style="stop-color:#131313"/>
			<stop  offset="0.9207" style="stop-color:#000000"/>
		</linearGradient>
		<path class="st10" d="M268.4,255.2c0-2-0.9-4-2.9-8.1c-10.9-23.2-22.4-45.8-35.6-70.2l-3.2,9.3c0,0,0,0,0,0c0,0,0,0,0,0
			c0.8,0,1.3,0.8,1.9,2.1c11.4,21.9,19.1,37.1,29.9,61.3c0.9,2.1,1.6,3.6,1.6,5.6c0,0,0,0,0,0H268.4z"/>
		<linearGradient id="SVGID_10_" gradientUnits="userSpaceOnUse" x1="205.896" y1="333.616" x2="205.896" y2="255.2318">
			<stop  offset="0.3571" style="stop-color:#BFBFBF"/>
			<stop  offset="0.4744" style="stop-color:#BABABA"/>
			<stop  offset="0.6097" style="stop-color:#ACACAC"/>
			<stop  offset="0.7539" style="stop-color:#959595"/>
			<stop  offset="0.9034" style="stop-color:#757575"/>
			<stop  offset="0.9631" style="stop-color:#666666"/>
			<stop  offset="1" style="stop-color:#303030"/>
		</linearGradient>
		<path class="st11" d="M226.7,324.1C226.7,324.1,226.7,324.1,226.7,324.1c-0.8,0-1.3-0.8-1.9-2.1c-11.4-21.9-19.1-37.1-29.9-61.3
			c-0.9-2.1-1.6-3.6-1.6-5.6c0,0,0,0,0,0l-8.2,0c0,2,0.9,4.1,2.9,8.2v0c10.9,23.2,22.3,45.8,35.5,70.2L226.7,324.1z"/>
		<linearGradient id="SVGID_11_" gradientUnits="userSpaceOnUse" x1="236.6742" y1="307.0425" x2="165.3727" y2="274.8804">
			<stop  offset="1.320000e-02" style="stop-color:#F1F1F1;stop-opacity:0.8"/>
			<stop  offset="0.1096" style="stop-color:#EDEDED;stop-opacity:0"/>
		</linearGradient>
		<path class="st12" d="M226.7,324.1C226.7,324.1,226.7,324.1,226.7,324.1c-0.8,0-1.3-0.8-1.9-2.1c-11.4-21.9-19.1-37.1-29.9-61.3
			c-0.9-2.1-1.6-3.6-1.6-5.6c0,0,0,0,0,0l-8.2,0c0,2,0.9,4.1,2.9,8.2v0c10.9,23.2,22.3,45.8,35.5,70.2L226.7,324.1z"/>
		<linearGradient id="SVGID_12_" gradientUnits="userSpaceOnUse" x1="232.5315" y1="389.6812" x2="232.5315" y2="254.3198">
			<stop  offset="0" style="stop-color:#FFFFFF"/>
			<stop  offset="0.2163" style="stop-color:#F9F9F9"/>
			<stop  offset="0.5116" style="stop-color:#E7E7E7"/>
			<stop  offset="0.8508" style="stop-color:#CBCBCB"/>
			<stop  offset="0.9693" style="stop-color:#BFBFBF"/>
			<stop  offset="0.9913" style="stop-color:#747474"/>
		</linearGradient>
		<path class="st13" d="M196.7,390.5c0.9,0,2-1.1,3.2-3c0.3-0.5,0.8-1.3,1.3-2.2c8.4-14.4,49.2-89.6,64.2-122
			c1.9-4.2,2.9-6.2,2.9-8.3h-8.2c0,0,0,0,0,0c0,2-0.7,3.5-1.6,5.5c-10.8,24.3-18.5,39.4-29.9,61.3c-0.7,1.3-1.2,2.1-1.9,2.1
			l-3.3,9.4C211.7,363,196.7,390.5,196.7,390.5z"/>
		<linearGradient id="SVGID_13_" gradientUnits="userSpaceOnUse" x1="153.2474" y1="395.0332" x2="153.2474" y2="255.1484">
			<stop  offset="0" style="stop-color:#666666"/>
			<stop  offset="0.2008" style="stop-color:#5D5D5D"/>
			<stop  offset="0.5917" style="stop-color:#505050"/>
			<stop  offset="0.9698" style="stop-color:#4C4C4C"/>
			<stop  offset="0.988" style="stop-color:#757575"/>
			<stop  offset="1" style="stop-color:#8C8C8C"/>
		</linearGradient>
		<path class="st14" d="M193.1,389.9c-0.3-0.4-0.7-0.8-1.1-1.4c-2.6-3.6-27.9-45.5-44.1-74.9c-11.5-20.9-22.8-43-27.6-53.2
			c-1-2.1-1.5-3.9-1.5-5.3l-5.3,0c0,1.8,0.4,4.2,2,7.6c3.8,8.2,14.3,28.9,27.8,53.5c14.7,26.8,41.5,71.4,44.5,75.5
			c1.2,1.7,2.3,2.7,3.3,3.3L193.1,389.9z"/>
		<linearGradient id="SVGID_14_" gradientUnits="userSpaceOnUse" x1="199.8985" y1="378.1169" x2="253.7679" y2="409.2184">
			<stop  offset="1.931200e-02" style="stop-color:#666666"/>
			<stop  offset="2.179513e-02" style="stop-color:#626262"/>
			<stop  offset="4.300772e-02" style="stop-color:#454545"/>
			<stop  offset="6.411536e-02" style="stop-color:#313131"/>
			<stop  offset="8.490101e-02" style="stop-color:#242424"/>
			<stop  offset="0.105" style="stop-color:#202020"/>
		</linearGradient>
		<path class="st15" d="M190.9,395c1.4,0.9,2.8,1,4.4,1.2c4,0.4,21.4,0.6,31.4,0.6c10,0,28.8-0.4,31.4-0.6c1.2-0.1,2.4-0.2,3.5-0.7
			l-2.1-5c-0.3,0.1-0.8,0.3-1.6,0.4l-0.4,0c-2.3,0.3-17.7,0.6-30.8,0.6c-10.6,0-20.6-0.2-27.1-0.5c-0.5,0-1.3,0-1.8,0
			c-1.1,0.1-2.3,0.2-3,0c-0.6-0.2-1.1-0.6-1.7-1.2L190.9,395z"/>
		<linearGradient id="SVGID_15_" gradientUnits="userSpaceOnUse" x1="240.6721" y1="153.2762" x2="360.0763" y2="218.6481">
			<stop  offset="0" style="stop-color:#595959"/>
			<stop  offset="1" style="stop-color:#747474"/>
		</linearGradient>
		<path class="st16" d="M340.1,255.1c0-1.5-0.3-4.1-2-7.6c-4-8.4-16.9-33.8-27.8-53.5c-14.5-26.4-41.4-71.3-44.5-75.5
			c-1.6-2.2-2.9-3.2-4.1-3.8l-2,4.9c0.6,0.4,1.2,1.1,1.9,2c2.6,3.6,27.9,45.5,44.1,74.9c11.5,20.9,22.8,43,27.6,53.2
			c1,2.1,1.5,3.5,1.5,5L340.1,255.1z"/>
		<linearGradient id="SVGID_16_" gradientUnits="userSpaceOnUse" x1="258.4856" y1="126.1264" x2="193.8073" y2="107.5802">
			<stop  offset="9.552040e-03" style="stop-color:#595959"/>
			<stop  offset="2.580157e-02" style="stop-color:#767676"/>
			<stop  offset="4.441745e-02" style="stop-color:#919191"/>
			<stop  offset="6.100414e-02" style="stop-color:#A1A1A1"/>
			<stop  offset="7.376030e-02" style="stop-color:#A7A7A7"/>
			<stop  offset="0.5011" style="stop-color:#BEBEBE"/>
			<stop  offset="1" style="stop-color:#BFBFBF"/>
		</linearGradient>
		<path class="st17" d="M191.7,114.8l2.1,5.1c0.4-0.2,0.8-0.4,1.9-0.5c2.1-0.2,17.9-0.6,31.1-0.6c10.7,0,21.6,0.2,27,0.5
			c0.5,0,1.3,0,1.8,0c1.1-0.1,2.5-0.2,3.1,0c0.3,0.1,0.7,0.3,1,0.5l2-4.9c-1.2-0.5-2.3-0.6-3.7-0.7c-4.1-0.4-22-0.6-31.3-0.6
			c-8.2,0-27.3,0.2-31.8,0.7C193.6,114.2,192.6,114.5,191.7,114.8z"/>
		<linearGradient id="SVGID_17_" gradientUnits="userSpaceOnUse" x1="95.316" y1="207.9961" x2="210.656" y2="163.7212">
			<stop  offset="0" style="stop-color:#8C8C8C"/>
			<stop  offset="0.9868" style="stop-color:#747474"/>
			<stop  offset="1" style="stop-color:#BFBFBF"/>
		</linearGradient>
		<path class="st18" d="M191.7,114.8c-1.7,0.7-2.7,1.9-4.2,4c-3.1,4-29.9,49.2-44.3,75.2c-10.1,18.3-26.3,50-27.8,53.5
			c-1.5,3.5-2,5.8-2,7.6l5.3,0c0-0.8,0.2-2.6,1.5-5.3c4.8-10.2,16.2-32.3,27.6-53.2c16.2-29.4,41.6-71.2,44.1-74.9
			c0.8-1.3,1.4-1.6,1.9-1.8L191.7,114.8z"/>
		<linearGradient id="SVGID_18_" gradientUnits="userSpaceOnUse" x1="299.8466" y1="395.4648" x2="299.8466" y2="254.8096">
			<stop  offset="1.902380e-02" style="stop-color:#202020"/>
			<stop  offset="0.2571" style="stop-color:#2C2C2C"/>
			<stop  offset="0.6194" style="stop-color:#393939"/>
			<stop  offset="0.9698" style="stop-color:#3D3D3D"/>
			<stop  offset="0.9863" style="stop-color:#5D5D5D"/>
			<stop  offset="1" style="stop-color:#747474"/>
		</linearGradient>
		<path class="st19" d="M261.7,395.5c1.3-0.6,2.6-1.6,4.1-3.8c2.9-4,31.7-52.1,44.5-75.5c12.8-23.3,26.3-50.2,27.8-53.5
			c1.8-4.1,2-6.1,2-7.6l-5.3-0.3c0,0.8-0.2,3-1.5,5.7c-4.8,10.2-16.2,32.3-27.6,53.2c-16.2,29.4-41.4,71.1-44,74.7
			c-1.1,1.5-1.5,1.9-2.1,2.1c0,0,0,0,0,0L261.7,395.5z"/>
		<path class="st0" d="M255.6,119.2c0.1,0,0.2,0,0.3,0c0,0-1.3,1-4.8,1c-4.1,0-12.6-0.2-19.4-0.2c-12.6-0.1-27.6,0.2-34.6,0.5
			c-3.7,0.2-3.9,0.6-6.3,3.1l0,0l1.2-1.8c0.8-1.3,1.4-1.6,1.9-1.8c0.4-0.2,0.8-0.4,1.9-0.5c2.1-0.2,17.9-0.6,31.1-0.6
			c10.7,0,21.6,0.2,27,0.5C254.3,119.3,255,119.3,255.6,119.2"/>
		<g>
			<defs>
				<path id="SVGID_19_" d="M340.1,255.1c0-1.3-0.3-4-2-7.6c-4.1-8.6-16.9-33.8-27.8-53.5c-0.8-1.5-1.7-3.1-2.6-4.7
					c-11.7-7.1-25.5-11.2-40.2-11.2c-14.6,0-28.3,4.1-40,11.1c1,1.9,9,17.2,16.3,32.1c6.8,14,12.8,27.4,13.5,28.9
					c0.9,2,1.4,3.3,1.4,4.9c0,1.6-0.5,2.8-1.4,4.8l0,0.1c-0.1,0.1-6.3,14.2-13.5,29c-6.5,13.2-13.5,26.8-16.2,32l-0.1,0.2
					c-0.3,0.5-0.5,0.9-0.6,0.9c-0.1,0-0.3-0.4-0.6-0.9c0-0.1-0.2-0.3-0.4-0.8c-7.6-14.6-12.9-25.2-16-31.5
					c-6.9-14.2-13.1-28-13.5-29l-0.1-0.1c-0.8-1.8-1.4-3.3-1.4-4.8c0-1.5,0.7-3.2,1.5-4.8c0-0.1,0.2-0.4,0.4-0.8
					c4.4-9.9,8.8-19.4,13.1-28.1c6.3-12.7,13.3-26.3,15.6-30.8c-21.5,13.9-35.8,38.2-35.8,65.8c0,43.2,34.9,78.3,78,78.3
					c13.9,0,26.9-3.6,38.2-10c1.7-3,3.3-5.8,4.6-8.3c12.4-22.7,26.2-49.9,27.8-53.5C339.9,258.9,340.1,256.8,340.1,255.1z"/>
			</defs>
			<clipPath id="SVGID_20_">
				<use xlink:href="#SVGID_19_"  style="overflow:visible;"/>
			</clipPath>
			<g class="st20">
				<defs>
					<filter id="Adobe_OpacityMaskFilter_1_" filterUnits="userSpaceOnUse" x="189.8" y="178.1" width="156.5" height="156.5">
						<feColorMatrix  type="matrix" values="1 0 0 0 0  0 1 0 0 0  0 0 1 0 0  0 0 0 1 0"/>
					</filter>
				</defs>
				<mask maskUnits="userSpaceOnUse" x="189.8" y="178.1" width="156.5" height="156.5" id="SVGID_21_">
					<g id="XMLID_3_" class="st21">
						<radialGradient id="SVGID_22_" cx="268.3157" cy="256.3523" r="23.3289" gradientUnits="userSpaceOnUse">
							<stop  offset="0.1664" style="stop-color:#FFFFFF"/>
							<stop  offset="0.1876" style="stop-color:#EBEBEB"/>
							<stop  offset="0.2456" style="stop-color:#BABABA"/>
							<stop  offset="0.3083" style="stop-color:#8E8E8E"/>
							<stop  offset="0.3742" style="stop-color:#686868"/>
							<stop  offset="0.4441" style="stop-color:#474747"/>
							<stop  offset="0.5193" style="stop-color:#2D2D2D"/>
							<stop  offset="0.6017" style="stop-color:#191919"/>
							<stop  offset="0.6951" style="stop-color:#0B0B0B"/>
							<stop  offset="0.8088" style="stop-color:#030303"/>
							<stop  offset="1" style="stop-color:#000000"/>
						</radialGradient>
						<path class="st22" d="M291.6,256.4c0-12.9-10.4-23.3-23.3-23.3c-12.9,0-23.3,10.4-23.3,23.3c0,12.9,10.4,23.3,23.3,23.3
							C281.2,279.7,291.6,269.2,291.6,256.4z"/>
					</g>
				</mask>
				<radialGradient id="SVGID_23_" cx="268.0728" cy="256.3525" r="78.2412" gradientUnits="userSpaceOnUse">
					<stop  offset="0" style="stop-color:#FFFFFF"/>
					<stop  offset="0.5897" style="stop-color:#FFFFFF;stop-opacity:0"/>
				</radialGradient>
				<circle class="st23" cx="268.1" cy="256.4" r="78.2"/>
			</g>
		</g>
		<path d="M258.6,249.6c-0.4-1-6.5-14.7-13.5-29c-7.6-15.5-16.1-31.7-16.4-32.4c-0.7-1.3-1.2-2.1-1.9-2.1c-0.7,0-1.2,0.7-1.9,2.1
			c-0.4,0.7-9,17.3-16.5,32.4c-7.4,15-13.1,28.2-13.5,29c-0.8,1.7-1.6,3.6-1.6,5.5s0.7,3.5,1.6,5.6c0.4,1,6.6,14.8,13.5,29.1
			c7.6,15.5,16.1,31.6,16.4,32.3c0.6,1.3,1.2,2.1,1.9,2.1c0.7,0,1.3-0.8,1.9-2.1c0.3-0.7,8.8-16.7,16.4-32.3
			c7-14.2,13.1-28,13.6-29.1c0.9-2.2,1.6-3.6,1.6-5.5C260.2,253.3,259.6,251.7,258.6,249.6z M257.3,259.9l0,0.1
			c-0.1,0.1-6.3,14.2-13.5,29c-6.5,13.2-13.5,26.8-16.2,32l-0.1,0.2c-0.3,0.5-0.5,0.9-0.6,0.9c-0.1,0-0.3-0.4-0.6-0.9
			c0-0.1-0.2-0.3-0.4-0.8c-7.6-14.6-12.9-25.2-16-31.5c-6.9-14.2-13.1-28-13.5-29l-0.1-0.1c-0.8-1.8-1.4-3.3-1.4-4.8
			c0-1.5,0.7-3.2,1.5-4.8c0-0.1,0.2-0.4,0.4-0.8c4.4-9.9,8.8-19.4,13.1-28.1c7.6-15.4,16.4-32.2,16.4-32.3c0.2-0.5,0.5-0.9,0.6-0.9
			s0.4,0.4,0.6,0.9c0.1,0.1,8.6,16.4,16.4,32.3c6.8,14,12.8,27.4,13.5,28.9c0.9,2,1.4,3.3,1.4,4.9
			C258.7,256.7,258.1,257.9,257.3,259.9z"/>
		<path d="M338.1,247.5c-4.1-8.6-16.9-33.8-27.8-53.5c-14.9-27-41.5-71.4-44.5-75.5c-3-4-4.6-4.2-7.4-4.5l-0.4,0
			c-4-0.4-21.1-0.6-31.3-0.6c-8.8,0-27.4,0.2-31.8,0.7c-4.1,0.4-5.2,1.7-7.5,4.7c-3.2,4.2-30.2,49.9-44.3,75.2
			c-10.2,18.4-26.3,50.1-27.8,53.5c-1.4,3.1-2,5.5-2,7.6c0,2.3,0.6,4.7,2,7.6c3.4,7.3,13.6,27.6,27.8,53.5
			c14.8,27,41.6,71.6,44.5,75.5c3,4.1,5,4.3,7.7,4.5c4.1,0.4,21.9,0.6,31.4,0.6c10.3,0,28.9-0.4,31.4-0.6c2.5-0.2,4.7-0.4,7.7-4.5
			c2.7-3.7,31.5-51.8,44.5-75.5c12.4-22.7,26.2-49.9,27.8-53.5c1.7-3.9,2-6,2-7.6C340.1,253.8,339.9,251.1,338.1,247.5z
			 M336.7,262.1c-1.6,3.5-15.3,30.7-27.7,53.4c-12.9,23.6-41.7,71.6-44.4,75.3c-2.5,3.5-4.1,3.7-6.6,3.9c-2.5,0.2-21.1,0.6-31.3,0.6
			c-9.5,0-27.2-0.3-31.3-0.6c-2.6-0.2-4-0.4-6.6-3.9c-2.8-3.9-29.6-48.4-44.4-75.3c-14.2-25.8-24.4-46.1-27.7-53.4
			c-1.3-2.7-1.8-4.9-1.8-7c0-1.9,0.6-4.1,1.9-7c1.5-3.4,17.6-35,27.7-53.4c14.1-25.3,41-70.9,44.2-75.1c2.2-2.9,3-3.8,6.5-4.1
			c4.3-0.4,22.9-0.7,31.6-0.7c10.2,0,27.2,0.2,31.1,0.6l0.4,0c2.6,0.3,3.8,0.4,6.3,3.9c3,4,29.5,48.3,44.4,75.3
			c10.8,19.7,23.6,44.8,27.7,53.4c1.6,3.3,1.8,5.8,1.8,7C338.6,256.6,338.4,258.5,336.7,262.1z"/>
	</g>
	<g>
		<path class="st0" d="M415,316.6c9.9,0,14,3.7,14,12.3c0,8.6-4.2,12.3-14,12.3h-10.9v15.4h-4.8v-36.2c0-0.4-0.2-0.6-0.6-0.8
			l-1.8-0.8l0.4-2.2H415z M404.1,337.3h10.6c6.8,0,9.6-2.4,9.6-8.4c0-6-2.8-8.4-9.6-8.4h-10.6V337.3z"/>
		<path class="st0" d="M452.9,353.6c-1.8,2.5-5.1,3.7-9.8,3.7c-7.6,0-11-2.7-11-8.5c0-5.8,3.6-8.5,11.7-8.5c3.1,0,6,0.4,8.5,1.3v-4
			c0-4.9-2.5-6.9-8.6-6.9c-2.9,0-6,0.5-8.9,1.4v-3.8c3-0.9,6.1-1.4,9.5-1.4c8.9,0,12.7,3.3,12.7,11v14.6c0,0.5,0.1,0.7,0.5,0.8
			l1.8,0.8l-0.5,2.4h-4.9c-0.4,0-0.5,0-0.5-0.5L452.9,353.6z M452.3,344.9c-2.3-0.9-4.9-1.3-7.7-1.3c-5.4,0-7.7,1.4-7.7,5.1
			c0,3.5,2.2,5.1,7.2,5.1c5.7,0,8.2-2,8.2-6.3V344.9z"/>
		<path class="st0" d="M475.6,326.9c3.3,0,6.4,0.5,9.3,1.3l-0.8,3.7c-2.7-0.9-5.4-1.3-8.3-1.3c-4.9,0-7.1,1.6-7.1,4.6
			c0,7,17.4,1.7,17.4,13.3c0,5.8-4.2,8.7-11.6,8.7c-3.7,0-7.1-0.5-10.1-1.4V352c3.2,1.1,6.4,1.6,9.8,1.6c5.1,0,7.4-1.8,7.4-5
			c0-7.8-17.4-1.9-17.4-13.3C464.1,329.6,468.4,326.9,475.6,326.9z"/>
		<path class="st0" d="M502.8,326.9c3.3,0,6.4,0.5,9.3,1.3l-0.8,3.7c-2.7-0.9-5.4-1.3-8.3-1.3c-4.9,0-7.1,1.6-7.1,4.6
			c0,7,17.4,1.7,17.4,13.3c0,5.8-4.2,8.7-11.6,8.7c-3.7,0-7.1-0.5-10.1-1.4V352c3.2,1.1,6.4,1.6,9.8,1.6c5.1,0,7.4-1.8,7.4-5
			c0-7.8-17.4-1.9-17.4-13.3C491.3,329.6,495.6,326.9,502.8,326.9z"/>
		<path class="st0" d="M519.2,327.6h6c0.4,0,0.5,0.1,0.5,0.6v28.3H521v-24.9c0-0.5-0.1-0.7-0.5-0.8l-1.8-0.8L519.2,327.6z
			 M523.3,315.8c2.1,0,3.1,0.9,3.1,3c0,2.1-1,3-3.1,3c-2.2,0-3.1-0.9-3.1-3C520.2,316.7,521.1,315.8,523.3,315.8z"/>
		<path class="st0" d="M547.3,326.9c10,0,14.2,4.5,14.2,15.2c0,10.7-4.2,15.2-14.2,15.2c-10,0-14.3-4.5-14.3-15.2
			C533,331.4,537.3,326.9,547.3,326.9z M547.3,353.4c6.6,0,9.3-3.3,9.3-11.4c0-8.1-2.7-11.4-9.3-11.4c-6.7,0-9.4,3.3-9.4,11.4
			C537.9,350.2,540.6,353.4,547.3,353.4z"/>
		<path class="st0" d="M593.6,352.5c0,0.5,0.1,0.7,0.5,0.8l1.8,0.8l-0.5,2.4h-6c-0.4,0-0.5-0.1-0.5-0.6v-17.4c0-5.6-2.1-7.7-7.3-7.7
			c-3.7,0-7.3,1.2-8.6,2.1v23.6h-4.8v-24.9c0-0.5-0.1-0.7-0.5-0.8l-1.8-0.8l0.5-2.4h6c0.4,0,0.5,0.1,0.5,0.6v2
			c2-1.9,5.1-3.3,9.4-3.3c8,0,11.2,3.3,11.2,11.5V352.5z"/>
		<path class="st0" d="M623,327.6h8.7v3.7H623v25.2h-4.8v-24.5c0-0.7,0-0.7-0.6-0.9l-3.4-1l0.4-2.6h3.6v-3.8c0-7,3-9.9,10.2-9.9
			c2.4,0,4.3,0.4,5.4,0.8l-0.8,3.7c-1.2-0.4-2.7-0.7-4.1-0.7c-4.2,0-6,1.7-6,5.9V327.6z"/>
		<path class="st0" d="M648.9,326.9c10,0,14.2,4.5,14.2,15.2c0,10.7-4.2,15.2-14.2,15.2c-10,0-14.3-4.5-14.3-15.2
			C634.6,331.4,638.9,326.9,648.9,326.9z M648.9,353.4c6.6,0,9.3-3.3,9.3-11.4c0-8.1-2.7-11.4-9.3-11.4c-6.7,0-9.4,3.3-9.4,11.4
			C639.5,350.2,642.2,353.4,648.9,353.4z"/>
		<path class="st0" d="M670,331.7c0-0.5-0.1-0.7-0.5-0.8l-1.8-0.8l0.5-2.4h6c0.4,0,0.5,0.1,0.5,0.6v2.9c2.2-2.8,5.3-4.2,9.4-4.2
			c1,0,2.1,0.1,2.8,0.2l-0.8,4.2c-0.7-0.2-1.6-0.4-2.7-0.4c-4.2,0-6.6,1.4-8.7,3.2v22.4H670V331.7z"/>
		<path class="st0" d="M708.7,352.5c0,0.5,0.1,0.7,0.5,0.8l1.8,0.8l-0.5,2.4h-6c-0.4,0-0.5-0.1-0.5-0.6v-37.3c0-0.5-0.1-0.7-0.5-0.8
			l-1.8-0.8l0.5-2.4h6c0.4,0,0.5,0.1,0.5,0.6V352.5z"/>
		<path class="st0" d="M717.7,327.6h6c0.4,0,0.5,0.1,0.5,0.6v28.3h-4.8v-24.9c0-0.5-0.1-0.7-0.5-0.8l-1.8-0.8L717.7,327.6z
			 M721.8,315.8c2.1,0,3.1,0.9,3.1,3c0,2.1-1,3-3.1,3c-2.2,0-3.1-0.9-3.1-3C718.7,316.7,719.6,315.8,721.8,315.8z"/>
		<path class="st0" d="M740.3,327.6h8.7v3.7h-8.7v25.2h-4.8v-24.5c0-0.7,0-0.7-0.6-0.9l-3.4-1l0.4-2.6h3.6v-3.8c0-7,3-9.9,10.2-9.9
			c2.4,0,4.3,0.4,5.4,0.8l-0.8,3.7c-1.2-0.4-2.7-0.7-4.1-0.7c-4.2,0-6,1.7-6,5.9V327.6z"/>
		<path class="st0" d="M765.6,326.9c8.8,0,12.5,4.4,12.5,14.7c0,0.7,0,1.3-0.1,1.8h-21.5c0.2,7.2,3.4,10.1,11.2,10.1
			c3.1,0,6.1-0.5,9.2-1.4v3.8c-2.9,1-6.1,1.4-9.6,1.4c-10.9,0-15.5-4.5-15.5-15.2C751.9,331.4,756,326.9,765.6,326.9z M756.6,340.2
			h17c-0.1-7-2.4-9.8-7.9-9.8C759.4,330.4,756.8,333.3,756.6,340.2z"/>
	</g>
</g>
</svg>
