<?xml version="1.0" encoding="utf-8"?>
<!-- Generator: Adobe Illustrator 22.0.0, SVG Export Plug-In . SVG Version: 6.00 Build 0)  -->
<svg version="1.1" id="Слой_1" xmlns="http://www.w3.org/2000/svg" xmlns:xlink="http://www.w3.org/1999/xlink" x="0px" y="0px"
	 viewBox="0 0 294 89" style="enable-background:new 0 0 294 89;" xml:space="preserve">
<style type="text/css">
	.st0{fill:#E2001A;}
	.st1{fill:#3E403F;}
</style>
<g>
	<g>
		<path class="st0" d="M37,31.9c9.6,0,19.2,2.8,19.2,15.6c0,10-7,14.7-16.6,14.7h-8.3v13.6H17.8V31.9H37z M31.2,52.2h6.4
			c3.2,0,5.5-1.1,5.5-4.7c0-3.2-1.9-4.7-5.8-4.7h-6.2V52.2z"/>
		<path class="st0" d="M104.5,53.9c0,13.8-8.9,23-22.2,23c-13.4,0-22.4-9.2-22.4-23s8.9-23,22.6-23C95.6,30.9,104.5,40,104.5,53.9z
			 M73.6,53.7c0,7.9,3.2,12.4,8.7,12.4c5.5,0,8.5-4.5,8.5-12.8c0-7.2-3.2-11.7-8.5-11.7C76.8,41.5,73.6,46.2,73.6,53.7z"/>
		<path class="st0" d="M149.2,31.9v43.9h-13.4V43.2h-8.1v2.6c0,12.4,0.2,30.9-15.3,30.9c-1.7,0-3.6-0.2-5.3-1.1V65.2
			c0.6,0.4,1.7,0.6,2.6,0.6c4.5,0,4.7-7.9,4.7-15.1v-19h34.9V31.9z"/>
		<path class="st0" d="M170.5,45.8h7.5c11.9,0,17.3,5.5,17.3,14.7c0,9.6-6.2,15.3-18.1,15.3h-20V31.9h13.4V45.8z M170.5,65.4h6.2
			c3,0,5.5-1.1,5.5-4.9c0-3.8-2.3-4.9-5.5-4.9h-6.2V65.4z"/>
		<path class="st0" d="M232.5,71.6v4.3h-13.2v-4.3c-12.4,0-20-7.7-20-17.9c0-8.1,5.8-17.5,20-17.5v-4.5h13.2v4.5
			c12.8,0,19.8,7.9,19.8,17.3C252.6,63.9,245.5,71.6,232.5,71.6z M219.7,45.8c-5.3,0-7,4.7-7,7.9c0,3.8,1.7,8.3,7,8.3V45.8z
			 M232.3,45.8V62c5.8,0,6.8-5.3,6.8-8.3C239.1,50.9,237.6,45.8,232.3,45.8z"/>
	</g>
	<path class="st1" d="M251.1,23.2c-3,0-4.9-2.1-4.9-5.5c0-3,1.7-5.5,4.9-5.5c2.1,0,4,1.3,4.3,3.4h-1.1c-0.4-1.5-1.7-2.6-3.4-2.6
		c-2.3,0-3.8,1.9-3.8,4.7s1.5,4.7,3.8,4.7c2.1,0,3.4-1.5,3.6-3.4h1.1C255.5,21.5,253.6,23.2,251.1,23.2z"/>
	<path class="st1" d="M265.5,22.8h-1.1V13h-6.4v9.8h-0.9V12.1h8.3V22.8z"/>
	<path class="st1" d="M272.8,22.8h-4.9V12.1h7.5V13H269v3.6h4c1.9,0,3.2,1.3,3.2,3C276,21.7,274.7,22.8,272.8,22.8z M272.6,17.7
		h-3.8v4.5h3.8c1.5,0,2.3-0.9,2.3-2.1C274.9,18.5,274.1,17.7,272.6,17.7z"/>
</g>
</svg>
