<svg width="117" height="32" fill="none" xmlns="http://www.w3.org/2000/svg"><g clip-path="url(#clip0_1710_19678)"><path d="M26.952 0H7.048A6.048 6.048 0 001 6.048v19.904A6.048 6.048 0 007.048 32h19.904A6.048 6.048 0 0033 25.952V6.048A6.048 6.048 0 0026.952 0z" fill="#FFE600"/><path d="M21.576 14.44v-3.048l1.104-1.104v2.648l.96.96 3.864-3.864.952.96a6.472 6.472 0 00-1.92-4.544 3.328 3.328 0 00-4.672-.304L18.008 10l.984.984L17 12.976l-1.992-1.992.984-.984-3.856-3.856a3.328 3.328 0 00-4.672.304 6.472 6.472 0 00-1.92 4.544l.952-.96 3.864 3.864.96-.96v-2.648l1.104 1.104v3.048L13.976 16l-7.64 7.648 3.016 3.016L17 19.024l7.648 7.64 3.016-3.016L20.024 16l1.552-1.56zm16.76 2.896h5.76v1.816h-3.608v1.864h1.2a3.584 3.584 0 012.632.864 2.665 2.665 0 01.8 1.944 2.76 2.76 0 01-.8 2 3.768 3.768 0 01-2.808.8h-3.2l.024-9.288zm3.008 7.592c.407.025.812-.075 1.16-.288a1.12 1.12 0 00-.056-1.696 2.056 2.056 0 00-1.104-.248h-.856v2.232h.856zm9.544-4.504h2.016v6.24h-2.016v-.752a2.096 2.096 0 01-1.848.968 2.942 2.942 0 01-2.336-.952 3.288 3.288 0 01-.904-2.336 3.528 3.528 0 01.968-2.52 2.975 2.975 0 012.168-.856 2.352 2.352 0 011.96.912l-.008-.704zm-2.56 1.976a1.536 1.536 0 00-.464 1.136c-.01.41.14.808.416 1.112a1.647 1.647 0 001.192.496 1.462 1.462 0 001.048-.44 1.6 1.6 0 00.488-1.168 1.6 1.6 0 00-.456-1.136 1.688 1.688 0 00-1.12-.432 1.6 1.6 0 00-1.104.432zm5.792-1.976h2.016v2.168h2.248v-2.168H60.4v6.24h-2.016v-2.448h-2.248v2.448H54.12v-6.24zm7.496 0h2.016v2.48l2.04-2.48H68.2l-2.68 2.896 2.856 3.344H65.8l-2.128-2.768v2.768h-2.056v-6.24zM41.624 5.336a3.52 3.52 0 012.448.8A2.855 2.855 0 0145 8.368a3.007 3.007 0 01-.8 2.2 3.2 3.2 0 01-2.4.8h-1.312v3.272h-2.152V5.336h3.288zM40.488 9.6h.8a1.6 1.6 0 001.16-.352 1.296 1.296 0 00.352-.928 1.2 1.2 0 00-.352-.904 1.656 1.656 0 00-1.2-.352h-.728L40.488 9.6zm9.752-1.176h2.016v6.24H50.24v-.752a2.08 2.08 0 01-1.848.968 2.96 2.96 0 01-2.336-.952 3.32 3.32 0 01-.912-2.336 3.528 3.528 0 01.968-2.52 2.983 2.983 0 012.168-.856 2.344 2.344 0 011.96.912v-.704zM47.68 10.4a1.599 1.599 0 00-.464 1.136 1.6 1.6 0 00.424 1.112 1.647 1.647 0 001.184.496c.396 0 .776-.16 1.056-.44a1.648 1.648 0 000-2.32 1.664 1.664 0 00-1.12-.432 1.6 1.6 0 00-1.08.448zm7.808-1.976V12l2.656-3.568h1.88v6.24h-2.016V11.04l-2.656 3.624h-1.88v-6.24h2.016zm3.792-2.52a2.287 2.287 0 01-.896 1.192 3.608 3.608 0 01-3.272 0 2.288 2.288 0 01-.896-1.192l1.4-.544a1.056 1.056 0 001.128.896c.288.02.574-.068.8-.248.189-.17.315-.398.36-.648l1.376.544zm5.192 11.872v-3.008h-.088a3.543 3.543 0 01-2.584-.944 3.102 3.102 0 01-.896-2.304 3.048 3.048 0 011.08-2.44 4 4 0 012.4-.752h.096V5.336h2.016v2.992h.104a4 4 0 012.4.752 3.072 3.072 0 011.072 2.44 3.104 3.104 0 01-.896 2.304 3.512 3.512 0 01-2.576.944h-.08v3.008h-2.048zm.096-7.824a1.656 1.656 0 00-1.256.432 1.6 1.6 0 00-.408 1.136c-.015.42.131.829.408 1.144a1.673 1.673 0 001.256.48V9.952zm1.824 3.2a1.68 1.68 0 001.256-.48c.277-.316.423-.725.408-1.144a1.6 1.6 0 00-.408-1.128 1.663 1.663 0 00-1.256-.432v3.184zm7.776 4.624v-3.008h-.088a3.545 3.545 0 01-2.56-.944 3.104 3.104 0 01-.92-2.304 3.048 3.048 0 011.08-2.44 4 4 0 012.4-.752h.096V5.336H76.2v2.992h.096a4 4 0 012.4.752 3.07 3.07 0 011.024 2.44 3.104 3.104 0 01-.896 2.304 3.511 3.511 0 01-2.56.944H76.2v3.008h-2.032zm.096-7.824A1.663 1.663 0 0073 10.4a1.6 1.6 0 00-.408 1.136c-.01.414.135.816.408 1.128a1.674 1.674 0 001.256.48l.008-3.192zm1.824 3.2a1.68 1.68 0 001.256-.48c.277-.316.423-.725.408-1.144a1.6 1.6 0 00-.408-1.128 1.663 1.663 0 00-1.256-.432v3.184zm9.328-4.728H87.4v6.24h-2.016v-.752a2.079 2.079 0 01-1.848.968 2.96 2.96 0 01-2.336-.952 3.32 3.32 0 01-.912-2.336 3.529 3.529 0 01.968-2.52 2.984 2.984 0 012.168-.856 2.344 2.344 0 011.96.912l.032-.704zm-2.56 1.976a1.6 1.6 0 00-.464 1.136 1.6 1.6 0 00.424 1.112 1.647 1.647 0 001.192.496c.394-.002.77-.16 1.048-.44a1.648 1.648 0 000-2.32 1.664 1.664 0 00-1.12-.432 1.6 1.6 0 00-1.08.448zm7.808-1.976V12l2.656-3.568h1.88v6.24h-2.016V11.04l-2.656 3.624h-1.88v-6.24h2.016zm3.792-2.52a2.288 2.288 0 01-.896 1.192 3.608 3.608 0 01-3.272 0 2.288 2.288 0 01-.896-1.192l1.4-.544a1.056 1.056 0 001.128.896c.288.02.574-.068.8-.248.189-.17.315-.398.36-.648l1.376.544zM96.2 8.96a6.547 6.547 0 011.032-.52 4.48 4.48 0 011.472-.224 3.24 3.24 0 012.112.64 1.5 1.5 0 01.464 1.152 1.394 1.394 0 01-.384 1.064 1.521 1.521 0 01-.528.352c.3.08.576.233.8.448a1.332 1.332 0 01.416 1.032 1.803 1.803 0 01-.544 1.304 3.09 3.09 0 01-2.296.672 4.88 4.88 0 01-1.704-.28 4.192 4.192 0 01-1.12-.664l.856-1.328c.24.208.51.378.8.504.305.125.63.193.96.2a1.6 1.6 0 00.728-.16.512.512 0 00.28-.472.447.447 0 00-.288-.424 2.53 2.53 0 00-.728-.112h-.8v-1.368h.576c.255.005.51-.032.752-.112a.432.432 0 000-.8 1.6 1.6 0 00-.632-.112c-.275 0-.548.057-.8.168a2.402 2.402 0 00-.672.408L96.2 8.96zm12.736 2.936h-4.656c.003.387.135.762.376 1.064a1.362 1.362 0 001.04.392 1.6 1.6 0 00.8-.184c.188-.131.337-.31.432-.52l1.904.2a2.819 2.819 0 01-1.2 1.6 3.775 3.775 0 01-1.976.464 3.2 3.2 0 01-2.488-.896 3.352 3.352 0 01-.944-2.4 3.576 3.576 0 01.952-2.464 3.267 3.267 0 012.4-.896 3.299 3.299 0 012.472.936 3.56 3.56 0 01.88 2.536l.008.168zm-1.856-1.2a1.598 1.598 0 00-.408-.728 1.337 1.337 0 00-.952-.368 1.357 1.357 0 00-1.024.408 1.421 1.421 0 00-.344.672l2.728.016zm2.768-2.272h2.016v2.168h2.248V8.424h2.016v6.24h-2.016v-2.448h-2.248v2.448h-2.016v-6.24z" fill="#2B2D34"/></g><defs><clipPath id="clip0_1710_19678"><path fill="#fff" transform="translate(1)" d="M0 0h115.128v32H0z"/></clipPath></defs></svg>