<svg width="436" height="101" viewBox="0 0 436 101" fill="none" xmlns="http://www.w3.org/2000/svg">
<path d="M245.787 0L191.257 7.12366V23.2604L245.787 18.3941V0Z" fill="#E4003A"/>
<path d="M79.1752 58.7688C79.1752 68.5618 82.0972 71.9506 91.4732 71.9506C100.849 71.9506 103.722 68.5453 103.722 58.7688C103.722 48.9923 100.893 45.587 91.4732 45.587C82.0522 45.587 79.1752 48.9264 79.1752 58.7688ZM62.7002 58.626C62.7002 40.6823 72.6712 32.4712 91.4732 32.4712C110.275 32.4712 120.29 40.6823 120.29 58.626C120.29 76.5697 110.385 85.0665 91.4732 85.0665C72.5612 85.0665 62.7002 76.5697 62.7002 58.626Z" fill="#00274F"/>
<path d="M235.464 36.9804L191.257 7.14014V23.2384L205.041 32.5755L207.753 34.1573C202.801 34.2177 200.429 35.2228 198.047 36.6619C191.24 40.7647 187.707 47.9817 187.707 58.6315C187.707 76.5752 197.612 85.072 216.48 85.072C235.349 85.072 245.303 76.5752 245.303 58.6315C245.303 48.2454 241.935 41.1437 235.464 36.9804ZM216.48 71.9506C207.126 71.9506 204.182 68.5453 204.182 58.7688C204.182 48.9923 207.104 45.587 216.48 45.587C225.857 45.587 228.729 48.9264 228.729 58.7688C228.729 68.6112 225.906 71.9506 216.48 71.9506Z" fill="#00274F"/>
<path d="M34.3292 32.4052C25.4262 32.4052 18.1901 37.8977 16.3961 40.1715V33.5806H0.598145V101H16.2971V77.0201C18.1401 79.3433 25.3261 84.737 34.2791 84.737C49.1361 84.737 57.3181 76.674 57.3181 58.5326C57.3181 40.3911 49.1472 32.4052 34.3292 32.4052ZM28.7051 71.6759C19.3511 71.6759 16.4072 68.2762 16.4072 58.4942C16.4072 48.7122 19.3291 45.3124 28.7051 45.3124C38.0811 45.3124 40.9482 48.6628 40.9482 58.4942C40.9482 68.3256 38.1251 71.6539 28.7051 71.6539V71.6759Z" fill="#00274F"/>
<path d="M353.329 33.6025V51.9087H332.486V33.6025H316.688V83.1441H332.486V64.5852H353.329V83.1441H369.133V33.6025H353.329Z" fill="#00274F"/>
<path d="M250.739 58.5326C250.739 76.6576 258.911 84.737 273.779 84.737C282.726 84.737 289.912 79.3433 291.755 77.0201V83.1496H307.46V33.5476H291.662V40.1385C289.857 37.8976 282.621 32.4052 273.724 32.4052C258.905 32.4052 250.739 40.4405 250.739 58.5326ZM267.104 58.4613C267.104 48.6188 269.927 45.2794 279.353 45.2794C288.779 45.2794 291.645 48.6298 291.645 58.4613C291.645 68.2927 288.724 71.6429 279.353 71.6429C269.982 71.6429 267.098 68.2542 267.098 58.4613H267.104Z" fill="#00274F"/>
<path d="M166.132 64.8379C164.899 70.0172 161.598 71.9505 154.444 71.9505C145.09 71.9505 142.151 68.5452 142.151 58.7687C142.151 48.9922 145.09 45.5869 154.444 45.5869C161.598 45.5869 164.899 47.5148 166.137 52.7271L182.612 51.4803C180.152 38.5182 170.506 32.493 154.444 32.493C135.642 32.493 125.677 40.7042 125.677 58.6479C125.677 76.5916 135.581 85.0884 154.444 85.0884C170.495 85.0884 180.042 78.9369 182.562 66.1011L166.132 64.8379Z" fill="#00274F"/>
<path d="M436 83.1386L410.996 57.1265L434.657 33.6025H415.112L393.911 55.1218V33.6025H378.394V83.1386H393.911V60.3286L415.69 83.1386H436Z" fill="#00274F"/>
</svg>
